<?xml version="1.0" encoding="utf-8"?>
<!-- Generator: Adobe Illustrator 19.1.0, SVG Export Plug-In . SVG Version: 6.00 Build 0)  -->
<svg version="1.1" id="Ebene_1" xmlns="http://www.w3.org/2000/svg" xmlns:xlink="http://www.w3.org/1999/xlink" x="0px" y="0px"
	 viewBox="-30 31.04 30.67 30.67" style="enable-background:new -30 31.04 30.67 30.67;" xml:space="preserve">
<style type="text/css">
	.st0{fill:#DDDCDB;}
</style>
<g>
	<polygon class="st0" points="-26.95,41.67 -27.58,41.22 -28.28,41.52 -28.37,42.27 -27.75,42.73 -27.04,42.43 	"/>
	<path class="st0" d="M-27.55,40.31l-0.43-0.31c-0.17,0.43-0.32,0.87-0.44,1.32l0.07,0.05l0.71-0.3L-27.55,40.31z"/>
	<polygon class="st0" points="-26.05,40.48 -26.68,40.02 -27.39,40.33 -27.47,41.08 -26.85,41.54 -26.14,41.24 	"/>
	<polygon class="st0" points="-17.34,44.08 -17.96,43.62 -18.67,43.92 -18.76,44.68 -18.14,45.13 -17.43,44.83 	"/>
	<polygon class="st0" points="-17.26,44.85 -16.64,45.31 -15.93,45.01 -15.84,44.25 -16.46,43.8 -17.17,44.1 	"/>
	<polygon class="st0" points="-17.78,42.73 -17.86,43.49 -17.24,43.94 -16.53,43.64 -16.45,42.88 -17.07,42.43 	"/>
	<path class="st0" d="M-25.76,37.92l-0.62-0.45l-0.38,0.16c-0.14,0.21-0.27,0.43-0.39,0.63l-0.03,0.27l0.62,0.46l0.71-0.3
		L-25.76,37.92z"/>
	<path class="st0" d="M-26.66,39.12l-0.62-0.45l-0.11,0.05c-0.19,0.37-0.37,0.74-0.52,1.13l0.46,0.34l0.71-0.3L-26.66,39.12z"/>
	<polygon class="st0" points="-24.26,38.1 -24.88,37.64 -25.59,37.94 -25.68,38.7 -25.06,39.15 -24.35,38.85 	"/>
	<path class="st0" d="M-24.86,36.73l-0.62-0.46l-0.4,0.17c-0.12,0.14-0.23,0.28-0.34,0.43l-0.05,0.45l0.62,0.46l0.71-0.3
		L-24.86,36.73z"/>
	<polygon class="st0" points="-23.36,36.9 -23.99,36.45 -24.7,36.75 -24.78,37.5 -24.16,37.96 -23.45,37.66 	"/>
	<polygon class="st0" points="-20.07,34.69 -20.69,34.23 -21.4,34.53 -21.48,35.29 -20.86,35.75 -20.15,35.44 	"/>
	<path class="st0" d="M-15.93,31.71c-0.45,0-0.91,0.03-1.36,0.08l-0.01,0.08l0.62,0.46l0.71-0.3L-15.93,31.71z"/>
	<polygon class="st0" points="-16.77,32.46 -17.4,32.01 -18.11,32.31 -18.19,33.06 -17.57,33.52 -16.86,33.22 	"/>
	<polygon class="st0" points="-17.67,33.65 -18.3,33.2 -19.01,33.5 -19.09,34.26 -18.47,34.71 -17.76,34.41 	"/>
	<polygon class="st0" points="-19.18,33.48 -19.8,33.03 -20.51,33.33 -20.59,34.08 -19.97,34.54 -19.26,34.24 	"/>
	<path class="st0" d="M-20.68,33.31l-0.57-0.42c-0.26,0.12-0.52,0.25-0.77,0.39l-0.07,0.64l0.62,0.45l0.71-0.3L-20.68,33.31z"/>
	<polygon class="st0" points="-14.34,44.42 -14.96,43.97 -15.67,44.27 -15.76,45.02 -15.14,45.48 -14.43,45.18 	"/>
	<polygon class="st0" points="-14.94,43.05 -15.57,42.6 -16.28,42.9 -16.36,43.65 -15.74,44.11 -15.03,43.81 	"/>
	<polygon class="st0" points="-13.44,43.23 -14.07,42.77 -14.78,43.07 -14.86,43.83 -14.24,44.28 -13.53,43.98 	"/>
	<polygon class="st0" points="-12.84,44.59 -13.46,44.14 -14.17,44.44 -14.26,45.2 -13.64,45.65 -12.93,45.35 	"/>
	<polygon class="st0" points="-11.34,44.77 -11.96,44.31 -12.67,44.61 -12.76,45.37 -12.14,45.83 -11.43,45.52 	"/>
	<polygon class="st0" points="-11.26,45.54 -10.63,46 -9.92,45.7 -9.84,44.94 -10.46,44.48 -11.17,44.79 	"/>
	<polygon class="st0" points="-8.34,45.11 -8.96,44.66 -9.67,44.96 -9.75,45.72 -9.13,46.17 -8.42,45.87 	"/>
	<polygon class="st0" points="-10.27,43.59 -10.36,44.35 -9.74,44.8 -9.03,44.5 -8.94,43.75 -9.56,43.29 	"/>
	<polygon class="st0" points="-8.86,44.52 -8.24,44.98 -7.53,44.68 -7.44,43.92 -8.06,43.47 -8.77,43.77 	"/>
	<polygon class="st0" points="-9.54,42.38 -10.16,41.92 -10.87,42.23 -10.96,42.98 -10.34,43.44 -9.63,43.14 	"/>
	<polygon class="st0" points="-8.04,42.55 -8.66,42.1 -9.37,42.4 -9.46,43.16 -8.84,43.61 -8.13,43.31 	"/>
	<polygon class="st0" points="-6.75,46.06 -6.13,46.52 -5.42,46.21 -5.33,45.46 -5.96,45 -6.67,45.3 	"/>
	<polygon class="st0" points="-3.83,45.63 -4.45,45.18 -5.16,45.48 -5.25,46.23 -4.63,46.69 -3.92,46.39 	"/>
	<path class="st0" d="M-2.87,46.34c0.03-0.28,0.06-0.57,0.08-0.87l-0.16-0.12l-0.71,0.3l-0.09,0.76l0.62,0.46l0.2-0.08
		C-2.9,46.61-2.88,46.47-2.87,46.34z"/>
	<polygon class="st0" points="-5.94,44.09 -6.56,43.64 -7.27,43.94 -7.36,44.69 -6.73,45.15 -6.03,44.85 	"/>
	<polygon class="st0" points="-5.86,44.87 -5.23,45.32 -4.52,45.02 -4.44,44.26 -5.06,43.81 -5.77,44.11 	"/>
	<polygon class="st0" points="-4.36,45.04 -3.73,45.49 -3.02,45.19 -2.94,44.44 -3.56,43.98 -4.27,44.28 	"/>
	<path class="st0" d="M-2.77,44.52l-0.08,0.7l0.07,0.05C-2.77,45.01-2.77,44.76-2.77,44.52z"/>
	<polygon class="st0" points="-6.54,42.72 -7.16,42.27 -7.87,42.57 -7.96,43.33 -7.34,43.78 -6.63,43.48 	"/>
	<polygon class="st0" points="-6.46,43.5 -5.83,43.96 -5.12,43.65 -5.04,42.9 -5.66,42.44 -6.37,42.74 	"/>
	<polygon class="st0" points="-3.54,43.07 -4.16,42.61 -4.87,42.92 -4.96,43.67 -4.33,44.13 -3.62,43.83 	"/>
	<path class="st0" d="M-2.91,42.89l-0.46,0.2l-0.09,0.76l0.62,0.46l0.05-0.02C-2.8,43.82-2.84,43.35-2.91,42.89z"/>
	<polygon class="st0" points="-13.67,40.08 -13.05,40.53 -12.34,40.23 -12.25,39.48 -12.87,39.02 -13.58,39.32 	"/>
	<polygon class="st0" points="-14.36,37.94 -14.98,37.48 -15.69,37.78 -15.78,38.54 -15.15,38.99 -14.44,38.69 	"/>
	<polygon class="st0" points="-16.07,41.1 -15.45,41.55 -14.74,41.25 -14.65,40.5 -15.27,40.04 -15.98,40.34 	"/>
	<polygon class="st0" points="-13.46,36.74 -14.08,36.29 -14.79,36.59 -14.88,37.34 -14.26,37.8 -13.55,37.5 	"/>
	<polygon class="st0" points="-12.56,35.55 -13.18,35.09 -13.89,35.39 -13.98,36.15 -13.36,36.61 -12.65,36.3 	"/>
	<polygon class="st0" points="-12.17,40.25 -11.55,40.71 -10.84,40.4 -10.75,39.65 -11.37,39.19 -12.08,39.5 	"/>
	<polygon class="st0" points="-9.25,39.82 -9.87,39.37 -10.58,39.67 -10.67,40.42 -10.05,40.88 -9.34,40.58 	"/>
	<polygon class="st0" points="-7.75,40 -8.37,39.54 -9.08,39.84 -9.17,40.6 -8.54,41.05 -7.84,40.75 	"/>
	<polygon class="st0" points="-6.25,40.17 -6.87,39.71 -7.58,40.02 -7.67,40.77 -7.04,41.23 -6.33,40.92 	"/>
	<polygon class="st0" points="-11.36,38.28 -11.98,37.83 -12.69,38.13 -12.77,38.88 -12.15,39.34 -11.44,39.04 	"/>
	<polygon class="st0" points="-9.85,38.46 -10.48,38 -11.19,38.3 -11.27,39.06 -10.65,39.51 -9.94,39.21 	"/>
	<polygon class="st0" points="-8.35,38.63 -8.98,38.17 -9.69,38.48 -9.77,39.23 -9.15,39.69 -8.44,39.38 	"/>
	<polygon class="st0" points="-6.85,38.8 -7.48,38.35 -8.18,38.65 -8.27,39.4 -7.65,39.86 -6.94,39.56 	"/>
	<polygon class="st0" points="-11.65,40.84 -12.27,40.39 -12.98,40.69 -13.07,41.44 -12.45,41.9 -11.74,41.6 	"/>
	<polygon class="st0" points="-7.15,41.36 -7.77,40.91 -8.48,41.21 -8.57,41.96 -7.94,42.42 -7.23,42.12 	"/>
	<polygon class="st0" points="-8.96,37.26 -9.58,36.81 -10.29,37.11 -10.38,37.86 -9.75,38.32 -9.04,38.02 	"/>
	<polygon class="st0" points="-8.88,38.04 -8.25,38.49 -7.54,38.19 -7.46,37.44 -8.08,36.98 -8.79,37.28 	"/>
	<polygon class="st0" points="-5.96,37.61 -6.58,37.15 -7.29,37.46 -7.37,38.21 -6.75,38.67 -6.04,38.36 	"/>
	<polygon class="st0" points="-11.15,36.48 -11.06,35.72 -11.68,35.27 -12.39,35.57 -12.48,36.32 -11.86,36.78 	"/>
	<polygon class="st0" points="-9.56,35.9 -10.18,35.44 -10.89,35.74 -10.98,36.5 -10.36,36.95 -9.65,36.65 	"/>
	<polygon class="st0" points="-8.06,36.07 -8.68,35.61 -9.39,35.91 -9.48,36.67 -8.85,37.13 -8.14,36.82 	"/>
	<polygon class="st0" points="-7.98,36.84 -7.35,37.3 -6.64,37 -6.56,36.24 -7.18,35.79 -7.89,36.09 	"/>
	<polygon class="st0" points="-4.75,40.34 -5.37,39.88 -6.08,40.19 -6.17,40.94 -5.54,41.4 -4.83,41.09 	"/>
	<path class="st0" d="M-3.31,41.06c-0.08-0.27-0.17-0.53-0.26-0.78l-0.3-0.22l-0.71,0.3l-0.09,0.76l0.62,0.46l0.71-0.3L-3.31,41.06z
		"/>
	<polygon class="st0" points="-5.35,38.97 -5.97,38.52 -6.68,38.82 -6.77,39.57 -6.15,40.03 -5.44,39.73 	"/>
	<path class="st0" d="M-3.89,39.49c-0.08-0.19-0.17-0.38-0.26-0.56l-0.32-0.23l-0.71,0.3l-0.09,0.76l0.62,0.46l0.71-0.3L-3.89,39.49
		z"/>
	<polygon class="st0" points="-6.98,41.38 -7.06,42.14 -6.44,42.59 -5.73,42.29 -5.65,41.53 -6.27,41.08 	"/>
	<polygon class="st0" points="-4.14,41.71 -4.77,41.25 -5.48,41.55 -5.56,42.31 -4.94,42.76 -4.23,42.46 	"/>
	<path class="st0" d="M-3.19,41.48l-0.08-0.05l-0.71,0.3l-0.09,0.76l0.62,0.46l0.51-0.22C-3,42.3-3.08,41.89-3.19,41.48z"/>
	<path class="st0" d="M-4.51,38.26c-0.18-0.31-0.38-0.63-0.59-0.93l-0.69,0.29l-0.09,0.76l0.62,0.46l0.71-0.3L-4.51,38.26z"/>
	<path class="st0" d="M-6.05,36.12l-0.34,0.14l-0.09,0.76l0.62,0.45l0.65-0.28C-5.46,36.82-5.75,36.46-6.05,36.12z"/>
	<path class="st0" d="M-7.03,35.12l-0.06,0.51l0.62,0.46l0.28-0.12C-6.45,35.68-6.73,35.39-7.03,35.12z"/>
	<path class="st0" d="M-7.18,34.98c-0.22-0.19-0.44-0.38-0.67-0.55l-0.65,0.28l-0.09,0.76l0.62,0.45l0.71-0.3L-7.18,34.98z"/>
	<polygon class="st0" points="-11.67,34.34 -12.3,33.89 -13,34.19 -13.09,34.95 -12.47,35.4 -11.76,35.1 	"/>
	<path class="st0" d="M-22.41,55.17l-0.62-0.45l-0.71,0.3l-0.01,0.13c0.38,0.29,0.78,0.57,1.19,0.81l0.07-0.03L-22.41,55.17z"/>
	<polygon class="st0" points="-24.43,54.4 -23.8,54.86 -23.1,54.56 -23.01,53.8 -23.63,53.35 -24.34,53.65 	"/>
	<path class="st0" d="M-20.34,57.02l0.04-0.31l-0.62-0.46l-0.61,0.26C-21.14,56.7-20.74,56.87-20.34,57.02z"/>
	<polygon class="st0" points="-22.32,55.94 -21.7,56.4 -20.99,56.1 -20.91,55.34 -21.53,54.88 -22.24,55.19 	"/>
	<polygon class="st0" points="-21.51,53.97 -22.13,53.52 -22.84,53.82 -22.93,54.57 -22.3,55.03 -21.59,54.73 	"/>
	<path class="st0" d="M-26.93,48.16l-0.62-0.46l-0.71,0.3l-0.06,0.55c0.03,0.1,0.06,0.19,0.09,0.29l0.51,0.37l0.71-0.3L-26.93,48.16
		z"/>
	<path class="st0" d="M-27.53,46.8l-0.62-0.45l-0.61,0.26c0.05,0.36,0.12,0.73,0.2,1.08l0.23,0.17l0.71-0.3L-27.53,46.8z"/>
	<path class="st0" d="M-25.72,50.9l-0.62-0.46l-0.71,0.3l-0.07,0.58c0.06,0.11,0.13,0.22,0.21,0.34l0.4,0.29l0.71-0.3L-25.72,50.9z"
		/>
	<polygon class="st0" points="-24.22,51.07 -24.84,50.62 -25.55,50.92 -25.64,51.67 -25.01,52.13 -24.3,51.83 	"/>
	<polygon class="st0" points="-24.05,51.09 -24.14,51.85 -23.51,52.3 -22.8,52 -22.72,51.24 -23.34,50.79 	"/>
	<path class="st0" d="M-26.32,49.53l-0.62-0.46l-0.71,0.3l-0.08,0.74l0,0.01c0,0.01,0.01,0.02,0.01,0.02l0.61,0.44l0.71-0.3
		L-26.32,49.53z"/>
	<polygon class="st0" points="-24.82,49.7 -25.45,49.25 -26.15,49.55 -26.24,50.31 -25.62,50.76 -24.91,50.46 	"/>
	<polygon class="st0" points="-23.32,49.88 -23.94,49.42 -24.65,49.72 -24.74,50.48 -24.12,50.93 -23.41,50.63 	"/>
	<polygon class="st0" points="-23.62,52.44 -24.24,51.98 -24.95,52.28 -25.03,53.04 -24.41,53.5 -23.7,53.19 	"/>
	<polygon class="st0" points="-22.12,52.61 -22.74,52.16 -23.45,52.46 -23.53,53.21 -22.91,53.67 -22.2,53.37 	"/>
	<polygon class="st0" points="-26.85,48.94 -26.22,49.39 -25.51,49.09 -25.43,48.34 -26.05,47.88 -26.76,48.18 	"/>
	<polygon class="st0" points="-26.03,46.97 -26.65,46.51 -27.36,46.82 -27.45,47.57 -26.82,48.03 -26.11,47.73 	"/>
	<polygon class="st0" points="-16.73,45.44 -17.36,44.98 -18.07,45.28 -18.15,46.04 -17.53,46.49 -16.82,46.19 	"/>
	<polygon class="st0" points="-17.55,47.41 -16.93,47.86 -16.22,47.56 -16.13,46.8 -16.76,46.35 -17.46,46.65 	"/>
	<polygon class="st0" points="-18.23,45.26 -18.86,44.81 -19.57,45.11 -19.65,45.86 -19.03,46.32 -18.32,46.02 	"/>
	<polygon class="st0" points="-19.05,47.23 -18.43,47.69 -17.72,47.39 -17.63,46.63 -18.26,46.18 -18.96,46.48 	"/>
	<path class="st0" d="M-28.78,46.41l0.55-0.24l0.09-0.76l-0.62-0.46l-0.12,0.05C-28.87,45.48-28.84,45.95-28.78,46.41z"/>
	<polygon class="st0" points="-13.71,52.28 -14.33,51.82 -15.04,52.12 -15.13,52.88 -14.51,53.33 -13.8,53.03 	"/>
	<polygon class="st0" points="-13.42,49.72 -14.04,49.26 -14.75,49.56 -14.84,50.32 -14.21,50.77 -13.5,50.47 	"/>
	<polygon class="st0" points="-14.02,48.35 -14.64,47.9 -15.35,48.2 -15.44,48.95 -14.81,49.41 -14.11,49.11 	"/>
	<polygon class="st0" points="-12.21,52.45 -12.83,52 -13.54,52.3 -13.63,53.05 -13.01,53.51 -12.3,53.21 	"/>
	<polygon class="st0" points="-12.81,51.08 -13.44,50.63 -14.15,50.93 -14.23,51.69 -13.61,52.14 -12.9,51.84 	"/>
	<polygon class="st0" points="-11.31,51.26 -11.94,50.8 -12.65,51.1 -12.73,51.86 -12.11,52.32 -11.4,52.01 	"/>
	<polygon class="st0" points="-13.11,53.65 -13.73,53.19 -14.44,53.49 -14.53,54.25 -13.9,54.7 -13.2,54.4 	"/>
	<polygon class="st0" points="-13.34,50.49 -12.71,50.95 -12,50.65 -11.92,49.89 -12.54,49.44 -13.25,49.74 	"/>
	<polygon class="st0" points="-10.42,50.06 -11.04,49.61 -11.75,49.91 -11.84,50.67 -11.21,51.12 -10.5,50.82 	"/>
	<polygon class="st0" points="-11.02,48.7 -11.64,48.24 -12.35,48.54 -12.44,49.3 -11.81,49.76 -11.1,49.45 	"/>
	<polygon class="st0" points="-10.94,49.47 -10.31,49.93 -9.6,49.63 -9.52,48.87 -10.14,48.41 -10.85,48.72 	"/>
	<path class="st0" d="M-3.14,47.77l0.02,0.01c0.06-0.27,0.12-0.54,0.16-0.81l-0.09,0.04L-3.14,47.77z"/>
	<polygon class="st0" points="-3.22,46.99 -3.85,46.53 -4.56,46.84 -4.64,47.59 -4.02,48.05 -3.31,47.75 	"/>
	<polygon class="st0" points="-7.73,46.47 -8.35,46.02 -9.06,46.32 -9.15,47.07 -8.52,47.53 -7.81,47.23 	"/>
	<polygon class="st0" points="-5.54,48.79 -4.92,49.24 -4.21,48.94 -4.12,48.18 -4.75,47.73 -5.46,48.03 	"/>
	<polygon class="st0" points="-10.73,46.13 -11.35,45.67 -12.06,45.97 -12.15,46.73 -11.52,47.18 -10.82,46.88 	"/>
	<polygon class="st0" points="-12.23,45.95 -12.85,45.5 -13.56,45.8 -13.65,46.55 -13.03,47.01 -12.32,46.71 	"/>
	<polygon class="st0" points="-13.73,45.78 -14.36,45.32 -15.06,45.63 -15.15,46.38 -14.53,46.84 -13.82,46.53 	"/>
	<polygon class="st0" points="-15.23,45.61 -15.86,45.15 -16.56,45.45 -16.65,46.21 -16.03,46.66 -15.32,46.36 	"/>
	<polygon class="st0" points="-10.13,47.49 -10.75,47.04 -11.46,47.34 -11.55,48.09 -10.92,48.55 -10.21,48.25 	"/>
	<polygon class="st0" points="-13.05,47.92 -12.42,48.38 -11.72,48.08 -11.63,47.32 -12.25,46.86 -12.96,47.17 	"/>
	<polygon class="st0" points="-13.13,47.15 -13.75,46.69 -14.46,46.99 -14.55,47.75 -13.93,48.2 -13.22,47.9 	"/>
	<polygon class="st0" points="-16.05,47.57 -15.43,48.03 -14.72,47.73 -14.63,46.97 -15.25,46.52 -15.96,46.82 	"/>
	<polygon class="st0" points="-25.16,39.29 -25.78,38.83 -26.49,39.14 -26.58,39.89 -25.96,40.35 -25.25,40.04 	"/>
	<polygon class="st0" points="-13.94,49.13 -13.31,49.58 -12.61,49.28 -12.52,48.52 -13.14,48.07 -13.85,48.37 	"/>
	<path class="st0" d="M-3.68,39.99c-0.02-0.06-0.05-0.12-0.08-0.19l-0.01,0.12L-3.68,39.99z"/>
	<path class="st0" d="M-4.33,38.59c-0.01-0.02-0.03-0.05-0.04-0.07l0,0.04L-4.33,38.59z"/>
	<polygon class="st0" points="-26.41,37.34 -26.36,36.92 -26.77,37.49 	"/>
	<polygon class="st0" points="-26.82,37.56 -26.82,37.56 -26.82,37.56 	"/>
	<path class="st0" d="M-28.54,42.26l0.09-0.76l-0.01-0.01c-0.07,0.27-0.13,0.54-0.18,0.81L-28.54,42.26z"/>
	<polygon class="st0" points="-22.99,35.12 -22.36,35.57 -21.65,35.27 -21.57,34.52 -22.19,34.06 -22.9,34.36 	"/>
	<polygon class="st0" points="-25.34,49.11 -24.72,49.57 -24.01,49.27 -23.93,48.51 -24.55,48.06 -25.26,48.36 	"/>
	<polygon class="st0" points="-13.15,40.67 -13.77,40.21 -14.48,40.52 -14.57,41.27 -13.95,41.73 -13.24,41.42 	"/>
	<path class="st0" d="M-25.75,53.25l0.55-0.23l0.09-0.76l-0.62-0.46l-0.71,0.3l-0.02,0.21C-26.25,52.64-26,52.96-25.75,53.25z"/>
</g>
</svg>
