<?xml version="1.0" encoding="utf-8"?>
<!-- Generator: Adobe Illustrator 19.1.0, SVG Export Plug-In . SVG Version: 6.00 Build 0)  -->
<svg version="1.1" id="Ebene_1" xmlns="http://www.w3.org/2000/svg" xmlns:xlink="http://www.w3.org/1999/xlink" x="0px" y="0px"
	 viewBox="0 2.83 60 60" style="enable-background:new 0 2.83 60 60;" xml:space="preserve">
<style type="text/css">
	.st0{fill:#E9B400;}
	.st1{fill:#1E1E1E;}
</style>
<circle class="st0" cx="30" cy="32.83" r="30"/>
<rect x="16.33" y="15.49" class="st1" width="26.67" height="35.75"/>
<g>
	<path class="st0" d="M10.16,12.99v39.69h39.69V12.99H10.16z M32.95,23.55c1.94-1.53,3.4-3.49,4.34-5.81
		c0.04-0.11,0.17-0.2,0.27-0.26c1.03-0.55,2.05-1.09,3.08-1.63c0.03,0,0.07,0,0.1,0c1.69,1.05,1.67,2.34,0.49,3.74
		c-0.56,0.66-1.1,1.49-1.85,1.8c-2.45,1.05-3.95,3.15-5.82,4.85c-0.11,0.1-0.44,0.1-0.59,0.01C31.56,25.37,31.65,24.57,32.95,23.55z
		 M17.65,37.72c0.5-0.66,0.94-1.38,1.51-1.96c2.17-2.22,4.39-4.41,6.59-6.59c0.05-0.05,0.24-0.05,0.3,0c1,0.99,2,1.98,2.98,2.98
		c0.05,0.05,0.05,0.24,0,0.28c-2.45,2.46-4.93,4.89-7.35,7.37c-1.14,1.17-3.44,1.02-4.02-1.05C17.65,38.4,17.65,38.06,17.65,37.72z
		 M22.57,49.53l-0.69-1.4h-2.63l-0.69,1.4h-1.55l2.96-5.64h1.18l2.95,5.64H22.57z M30.34,48.29c-0.12,0.26-0.28,0.5-0.5,0.69
		c-0.22,0.2-0.47,0.35-0.77,0.46c-0.3,0.11-0.63,0.17-0.98,0.17c-0.43,0-0.81-0.07-1.13-0.22c-0.32-0.15-0.58-0.34-0.76-0.59v2.42
		h-1.42v-5.85h1.24v0.71c0.21-0.24,0.47-0.44,0.79-0.58s0.7-0.21,1.12-0.21c0.38,0,0.72,0.06,1.04,0.17
		c0.32,0.11,0.59,0.26,0.82,0.46c0.23,0.19,0.41,0.42,0.54,0.68c0.13,0.26,0.2,0.54,0.2,0.83C30.52,47.74,30.46,48.03,30.34,48.29z
		 M37.02,48.29c-0.12,0.26-0.28,0.5-0.5,0.69c-0.22,0.2-0.47,0.35-0.77,0.46c-0.3,0.11-0.63,0.17-0.98,0.17
		c-0.43,0-0.81-0.07-1.13-0.22c-0.32-0.15-0.58-0.34-0.76-0.59v2.42h-1.42v-5.85h1.24v0.71c0.21-0.24,0.47-0.44,0.79-0.58
		c0.32-0.14,0.7-0.21,1.12-0.21c0.38,0,0.72,0.06,1.04,0.17c0.32,0.11,0.59,0.26,0.82,0.46c0.23,0.19,0.41,0.42,0.54,0.68
		c0.13,0.26,0.2,0.54,0.2,0.83C37.2,47.74,37.14,48.03,37.02,48.29z M34.61,39.3c-1.39-1.28-1.82-2.9-1.33-4.74
		c0.03-0.13-0.01-0.35-0.11-0.45c-3.04-3.05-6.08-6.09-9.13-9.12c-0.08-0.08-0.24-0.15-0.34-0.12c-2.79,0.85-5.54-0.87-6.01-3.78
		c-0.01-0.03-0.03-0.05-0.04-0.09c0-0.36,0-0.71,0-1.07c0.07-0.28,0.17-0.57,0.22-0.86c0.11-0.5,0.23-0.66,0.67-0.19
		c0.81,0.88,1.68,1.72,2.54,2.55c0.72,0.7,1.55,0.83,2.28,0.08c0.71-0.72,0.58-1.53-0.1-2.24c-0.6-0.62-1.18-1.25-1.83-1.82
		c-0.86-0.76-1.58-1.42,0.31-1.62c0.36,0,0.71,0,1.07,0c2.99,1.06,4.34,2.45,4.01,4.87c-0.19,1.39,0.44,2,1.22,2.78
		c2.62,2.59,5.21,5.22,7.84,7.78c0.2,0.19,0.75,0.07,1.12,0.03c1.78-0.2,3.27,0.36,4.36,1.77c1.09,1.4,1.26,2.98,0.57,4.62
		c-0.01,0.03-0.19,0.04-0.22,0c-0.95-0.93-1.88-1.89-2.83-2.81c-0.72-0.7-1.54-0.8-2.26-0.07c-0.71,0.72-0.58,1.54,0.1,2.24
		c0.93,0.95,1.88,1.89,2.82,2.83c0.03,0.03,0,0.21-0.03,0.22C37.71,40.85,36.03,40.61,34.61,39.3z M42.47,48.84
		C42.36,49,42.2,49.14,42,49.25c-0.2,0.11-0.44,0.2-0.73,0.26s-0.6,0.09-0.95,0.09c-0.22,0-0.46-0.01-0.7-0.04
		c-0.24-0.03-0.48-0.07-0.71-0.11c-0.23-0.05-0.46-0.11-0.67-0.17c-0.21-0.07-0.4-0.15-0.56-0.23l0.57-0.72
		c0.71,0.34,1.39,0.52,2.04,0.52c0.3,0,0.53-0.04,0.7-0.12c0.17-0.08,0.25-0.19,0.25-0.34c0-0.15-0.1-0.26-0.3-0.33
		c-0.21-0.07-0.54-0.15-1.01-0.23c-0.36-0.07-0.67-0.13-0.92-0.2c-0.25-0.07-0.46-0.15-0.62-0.24c-0.15-0.09-0.27-0.19-0.34-0.31
		c-0.07-0.12-0.11-0.25-0.11-0.41c0-0.21,0.06-0.4,0.17-0.57c0.11-0.17,0.27-0.31,0.47-0.43c0.2-0.12,0.44-0.21,0.71-0.27
		c0.27-0.07,0.57-0.09,0.89-0.09c0.4,0,0.79,0.05,1.18,0.14s0.75,0.22,1.1,0.38l-0.58,0.66c-0.31-0.15-0.6-0.26-0.88-0.32
		c-0.28-0.07-0.55-0.1-0.83-0.1c-0.25,0-0.47,0.04-0.64,0.11c-0.17,0.07-0.26,0.19-0.26,0.36c0,0.15,0.09,0.24,0.25,0.31
		c0.17,0.07,0.46,0.13,0.89,0.21c0.4,0.07,0.73,0.15,1.01,0.22c0.28,0.07,0.51,0.16,0.69,0.25c0.18,0.09,0.31,0.21,0.39,0.33
		s0.12,0.27,0.12,0.45C42.63,48.49,42.58,48.68,42.47,48.84z"/>
	<path class="st0" d="M28.63,46.56c-0.14-0.11-0.3-0.2-0.49-0.26c-0.19-0.07-0.39-0.09-0.61-0.09c-0.13,0-0.27,0.02-0.41,0.05
		c-0.14,0.03-0.27,0.09-0.39,0.15c-0.12,0.07-0.22,0.14-0.32,0.22c-0.09,0.09-0.17,0.18-0.22,0.28v0.98
		c0.13,0.24,0.32,0.44,0.58,0.59s0.54,0.23,0.85,0.23c0.21,0,0.41-0.03,0.59-0.11c0.18-0.07,0.33-0.16,0.46-0.28
		c0.13-0.12,0.22-0.25,0.3-0.4s0.11-0.31,0.11-0.48c0-0.17-0.04-0.34-0.12-0.49C28.88,46.81,28.76,46.67,28.63,46.56z"/>
	<path class="st0" d="M35.32,46.56c-0.14-0.11-0.3-0.2-0.49-0.26c-0.19-0.07-0.39-0.09-0.61-0.09c-0.13,0-0.27,0.02-0.41,0.05
		c-0.14,0.03-0.27,0.09-0.39,0.15c-0.12,0.07-0.22,0.14-0.32,0.22c-0.09,0.09-0.17,0.18-0.22,0.28v0.98
		c0.13,0.24,0.32,0.44,0.58,0.59c0.26,0.16,0.54,0.23,0.85,0.23c0.21,0,0.41-0.03,0.59-0.11c0.18-0.07,0.33-0.16,0.46-0.28
		c0.13-0.12,0.22-0.25,0.3-0.4c0.07-0.15,0.11-0.31,0.11-0.48c0-0.17-0.04-0.34-0.12-0.49C35.56,46.81,35.46,46.67,35.32,46.56z"/>
	<polygon class="st0" points="19.49,47.35 21.62,47.35 20.57,45.08 	"/>
</g>
</svg>
