<?xml version="1.0" encoding="utf-8"?>
<!-- Generator: Adobe Illustrator 19.1.0, SVG Export Plug-In . SVG Version: 6.00 Build 0)  -->
<svg version="1.1" id="Ebene_1" xmlns="http://www.w3.org/2000/svg" xmlns:xlink="http://www.w3.org/1999/xlink" x="0px" y="0px"
	 viewBox="0 2.83 60 60" style="enable-background:new 0 2.83 60 60;" xml:space="preserve">
<style type="text/css">
	.st0{fill:#E9B400;}
	.st1{fill:#1E1E1E;}
</style>
<circle class="st0" cx="30" cy="32.83" r="30"/>
<rect x="13.33" y="24.33" class="st1" width="33.33" height="19.67"/>
<g>
	<path class="st0" d="M27.41,38.72c-1.08-1.08-1.32-2.68-0.73-4l-0.55-0.55c-0.86,1.63-0.61,3.69,0.76,5.06s3.43,1.62,5.06,0.76
		l-0.55-0.55C30.09,40.05,28.49,39.8,27.41,38.72z"/>
	<polygon class="st0" points="28.05,35.42 28.05,32.71 25.35,32.71 25.99,33.36 	"/>
	<path class="st0" d="M32.47,33.66c1.03,1.03,1.3,2.52,0.81,3.8l0.56,0.56c0.74-1.59,0.46-3.55-0.85-4.86
		c-1.32-1.32-3.27-1.59-4.87-0.85l0.56,0.56C29.95,32.37,31.44,32.64,32.47,33.66z"/>
	<polygon class="st0" points="31.9,36.88 31.9,39.58 34.6,39.58 33.96,38.94 	"/>
	<path class="st0" d="M10.16,12.99v39.69h39.69V12.99H10.16z M39.93,42.93c-2.92,0-16.01,0-19.25,0s-5.87-2.8-5.87-5.3
		c0-3.41,2.56-5.46,5.8-5.46c0.09,0,0.19,0.01,0.28,0.01c0-0.03,0-0.06,0-0.09c0-3.45,2.45-6.51,5.74-6.51
		c2.45,0,4.35,1.44,5.26,3.66c0.54-0.38,0.97-0.73,2.18-0.65c1.98,0.13,3.17,1.57,3.89,3.37c0.47-0.13,1.47-0.5,1.98-0.5
		c3.24,0,5.87,2.76,5.87,6.16C45.8,40.06,43.18,42.93,39.93,42.93z"/>
</g>
</svg>
