<?xml version="1.0" encoding="utf-8"?>
<!-- Generator: Adobe Illustrator 19.1.0, SVG Export Plug-In . SVG Version: 6.00 Build 0)  -->
<svg version="1.1" id="Ebene_1" xmlns="http://www.w3.org/2000/svg" xmlns:xlink="http://www.w3.org/1999/xlink" x="0px" y="0px"
	 viewBox="0 2.83 60 60" style="enable-background:new 0 2.83 60 60;" xml:space="preserve">
<style type="text/css">
	.st0{fill:#E9B400;}
	.st1{fill:#1E1E1E;}
	.st2{fill:#71B2DD;}
	.st3{fill:#FDFEFE;}
	.st4{fill:#E9E9EA;}
	.st5{fill:#EAEAEA;}
	.st6{fill:#E8E9EA;}
	.st7{fill:#FEF4EC;}
	.st8{fill:#8EC1E4;}
</style>
<circle class="st0" cx="30" cy="32.83" r="30"/>
<rect x="15.75" y="16.66" class="st1" width="29.13" height="31.75"/>
<path class="st0" d="M10.16,12.99v39.69h39.69V12.99H10.16z M41.44,44.9l-11.01,2.84l-10.56-2.79l-2.78-27.2h26.7L41.44,44.9z"/>
<polyline class="st2" points="30.46,19.91 41.53,19.91 39.43,43.24 30.46,45.71 "/>
<polygon class="st3" points="30.46,23.29 38.88,23.29 37.38,40.26 30.45,42.13 30.45,38.6 34.23,37.66 34.62,33.37 30.46,33.37 
	30.45,30.01 34.88,30.01 35.19,26.61 30.45,26.61 "/>
<polygon class="st4" points="30.45,42.13 23.68,40.25 23.21,35.03 26.58,35.03 26.83,37.66 30.45,38.6 "/>
<polygon class="st5" points="30.46,23.29 30.45,26.61 22.48,26.6 22.13,23.29 "/>
<polygon class="st6" points="30.46,33.37 23.07,33.37 22.79,30.01 30.45,30.01 "/>
<path class="st7" d="M22.45,26.07l0.03,0.53c0,0,2.28,0,3.37,0c-1.11,0-2.22,0-3.37,0C22.47,26.43,22.45,26.07,22.45,26.07z"/>
<path class="st7" d="M22.9,30.01c-0.04,0.03-0.08,0.04-0.13,0.07"/>
<path class="st8" d="M34.96,28.58c0.01-0.09,0.03-0.19,0.03-0.27C34.99,28.4,34.97,28.48,34.96,28.58z"/>
<path class="st8" d="M34.88,29.55c0.01-0.08,0.03-0.16,0.03-0.24C34.89,29.39,34.89,29.46,34.88,29.55z"/>
<path class="st8" d="M35.05,27.72c0.01-0.06,0.01-0.12,0.02-0.18C35.06,27.6,35.06,27.66,35.05,27.72z"/>
<path class="st7" d="M30.45,30.01c0,0.03,0.01,0.05,0.01,0.07"/>
</svg>
