<?xml version="1.0" encoding="utf-8"?>
<!-- Generator: Adobe Illustrator 19.1.0, SVG Export Plug-In . SVG Version: 6.00 Build 0)  -->
<svg version="1.1" id="Ebene_1" xmlns="http://www.w3.org/2000/svg" xmlns:xlink="http://www.w3.org/1999/xlink" x="0px" y="0px"
	 viewBox="0 2.83 60 60" style="enable-background:new 0 2.83 60 60;" xml:space="preserve">
<style type="text/css">
	.st0{fill:#E9B400;}
	.st1{fill:#1E1E1E;}
</style>
<circle class="st0" cx="30" cy="32.83" r="30"/>
<rect x="13.08" y="33.41" class="st1" width="34.25" height="17.75"/>
<g>
	<path class="st0" d="M37.52,45.04c-0.63-0.01-1.25-0.01-1.88,0c-0.46,0.01-0.62,0.16-0.62,0.62c-0.01,0.74-0.01,1.48,0,2.22
		c0.01,0.41,0.2,0.63,0.61,0.67c0.32,0.03,0.65,0,0.99,0c0.03-0.05,0.05-0.1,0.07-0.15c-0.28-0.21-0.57-0.42-0.85-0.62
		c0.75-0.16,1.39-0.17,1.84,0.44c0.02,0.03,0.05,0.05,0.09,0.07c0.18,0.13,0.28,0.03,0.34-0.13c0.03-0.09,0.03-0.19,0.03-0.28
		c0-0.74,0.01-1.48,0-2.22C38.12,45.19,37.98,45.05,37.52,45.04z"/>
	<path class="st0" d="M10.16,12.99v39.69h39.69V12.99H10.16z M35.08,33.99c0.52-0.03,0.97,0.2,1.37,0.47c0.3,0.2,0.6,0.28,0.94,0.34
		c0.36,0.06,0.75,0.15,1.07,0.32c1.63,0.88,2.88,2.12,3.62,3.85c0.25,0.59,0.55,1.16,0.8,1.75c0.15,0.34,0.36,0.56,0.7,0.68
		c0.8,0.28,1.44,0.83,2.08,1.36c0.16,0.13,0.26,0.32,0.45,0.54c-0.47,0.1-0.89,0.17-1.29,0.27c-0.15,0.04-0.28,0.13-0.43,0.2
		c0.1,0.11,0.19,0.23,0.3,0.3c0.6,0.37,1.16,0.79,1.55,1.39c0.02,0.05,0.04,0.09,0.06,0.14c0.01,0.01,0.01,0.01,0.02,0.02
		c0,0.01,0.01,0.01,0.01,0.01c0.02,0,0.05,0,0.07,0.01c-0.01,0.02-0.01,0.05-0.03,0.07c-0.01-0.02-0.03-0.05-0.04-0.07
		c-0.01,0-0.01,0-0.01,0c-0.01-0.01-0.01-0.02-0.01-0.03c-0.03-0.03-0.07-0.06-0.1-0.09c-0.6-0.35-1.2-0.69-1.8-1.05
		c-0.11-0.07-0.23-0.14-0.31-0.24c-0.17-0.22-0.32-0.46-0.48-0.69c0.23-0.11,0.46-0.24,0.69-0.3c0.38-0.09,0.78-0.12,1.2-0.18
		c-0.11-0.09-0.21-0.21-0.32-0.28c-0.66-0.44-1.3-0.92-2.09-1.08c-0.26-0.06-0.42-0.25-0.53-0.47c-0.35-0.73-0.71-1.46-1.04-2.2
		c-0.67-1.53-1.73-2.69-3.22-3.45c-0.38-0.19-0.81-0.32-1.23-0.36c-0.32-0.03-0.57-0.16-0.83-0.3c-0.33-0.18-0.67-0.35-1.02-0.49
		c-0.1-0.04-0.29,0-0.35,0.07c-0.06,0.07-0.03,0.24,0.01,0.36c0.05,0.14,0.14,0.27,0.23,0.38c0.46,0.54,0.73,1.18,0.96,1.84
		c0.13,0.38,0.33,0.76,0.56,1.09c0.21,0.3,0.23,0.57,0.1,0.89c-0.32,0.78-0.3,1.58-0.06,2.37c0.07,0.24,0.24,0.44,0.48,0.63
		c0.05-0.3,0.11-0.6,0.16-0.91c0.06-0.32,0.21-0.6,0.46-0.81c0.44,0.81,0.87,1.59,1.3,2.38c0.01,0.05,0.03,0.09,0.05,0.13
		c-0.03-0.03-0.07-0.05-0.11-0.07c-0.59-0.32-0.87-0.91-1.19-1.5c-0.06,0.31-0.09,0.57-0.17,0.82c-0.12,0.44-0.46,0.56-0.81,0.26
		c-0.42-0.34-0.59-0.82-0.67-1.34c-0.11-0.71-0.02-1.4,0.17-2.08c0.07-0.26,0.03-0.44-0.11-0.67c-0.26-0.45-0.48-0.93-0.65-1.43
		c-0.19-0.53-0.46-0.99-0.79-1.43c-0.13-0.18-0.26-0.38-0.32-0.59C34.31,34.35,34.58,34.01,35.08,33.99z M37.33,36.75
		c-0.18-0.27-0.31-0.46-0.44-0.66C37.36,35.95,37.49,36.09,37.33,36.75z M21.28,49.25c-0.91-0.01-0.73,0.08-0.74-0.7
		c-0.01-1.11,0-2.22-0.09-3.35c-0.08,0.14-0.17,0.28-0.23,0.42c-0.46,1.01-0.93,2.02-1.38,3.04c-0.19,0.44-0.5,0.61-0.97,0.62
		c-0.53,0.01-0.85-0.22-1.05-0.69c-0.42-0.97-0.85-1.92-1.29-2.88c-0.08-0.18-0.19-0.35-0.34-0.65c0,1.32,0,2.49,0,3.66
		c0,0.59,0.03,0.52-0.52,0.53c-0.07,0-0.15-0.01-0.22,0c-0.23,0.03-0.29-0.09-0.29-0.3c0.01-0.74,0-1.48,0-2.22
		c0-0.57-0.01-1.14,0-1.71c0.01-0.44,0.15-0.66,0.54-0.74c0.97-0.19,1.32-0.01,1.65,0.76c0.45,1.04,0.89,2.08,1.34,3.11
		c0.03,0.07,0.07,0.13,0.15,0.26c0.48-1.06,0.91-2.04,1.35-3.02c0.06-0.14,0.14-0.27,0.19-0.41c0.29-0.75,0.77-0.87,1.69-0.67
		c0.34,0.07,0.5,0.34,0.5,0.67c0.01,1.33,0,2.66,0.01,3.99C21.59,49.19,21.5,49.25,21.28,49.25z M27.55,47.87
		c0,0.5,0.01,0.99,0,1.48c-0.01,0.73-0.21,1.03-0.92,1.23c-0.3,0.09-0.63,0.15-0.95,0.16c-0.93,0.02-1.86,0.01-2.79,0.01
		c-0.4,0-0.4-0.01-0.4-0.4c0.01-0.37,0.01-0.38,0.44-0.38c0.89,0,1.79,0,2.68,0c0.15,0,0.3,0.01,0.46-0.02
		c0.32-0.05,0.42-0.19,0.42-0.49c0.01-0.24-0.13-0.26-0.32-0.27c-0.76-0.01-1.51-0.02-2.28-0.05c-0.22-0.01-0.45-0.05-0.66-0.13
		c-0.54-0.19-0.73-0.49-0.73-1.06c0-0.63,0.01-1.26-0.01-1.88c-0.01-0.24,0.07-0.34,0.32-0.33c0.86,0.02,0.69-0.08,0.71,0.67
		c0.01,0.5-0.01,0.99,0,1.48c0.01,0.42,0.14,0.6,0.56,0.62c0.72,0.03,1.44,0.01,2.16,0.01c0.22,0,0.23-0.13,0.23-0.3
		c0-0.65,0-1.29,0-1.94c0-0.13-0.01-0.26,0.01-0.4c0.01-0.06,0.08-0.15,0.13-0.15c0.24-0.01,0.5-0.02,0.74-0.01
		c0.22,0.01,0.19,0.21,0.19,0.35C27.55,46.69,27.55,47.28,27.55,47.87z M33.21,44.66c-0.01,0.44-0.01,0.37-0.56,0.37
		c-0.83,0-1.67-0.01-2.51,0c-0.63,0.01-0.9,0.44-0.63,1.02c0.11,0.25,0.29,0.37,0.58,0.36c0.48-0.01,0.95-0.01,1.42,0
		c0.44,0.01,0.85,0.13,1.23,0.36c0.08,0.05,0.17,0.1,0.22,0.17c0.39,0.44,0.17,1.67-0.34,1.98c-0.44,0.26-0.93,0.3-1.42,0.32
		c-0.83,0.03-1.67,0.01-2.51,0.01c-0.34,0-0.33-0.01-0.35-0.41c-0.01-0.26,0.06-0.37,0.35-0.36c0.87,0.02,1.75,0.01,2.62,0.01
		c0.66-0.01,1.01-0.54,0.69-1.1c-0.08-0.15-0.33-0.24-0.52-0.27c-0.4-0.05-0.79-0.02-1.19-0.03c-0.48-0.01-0.93-0.12-1.36-0.31
		c-0.38-0.17-0.56-0.42-0.53-0.84c0-0.04,0.01-0.08,0-0.11c-0.13-1.09,0.36-1.4,1.53-1.55c0.48-0.06,0.99-0.01,1.48-0.01
		c0.42,0,0.83,0,1.25,0C33.21,44.27,33.21,44.27,33.21,44.66z M38.49,49.93c-0.2-0.04-0.4-0.19-0.55-0.34
		c-0.28-0.3-0.57-0.4-1.01-0.37c-0.67,0.05-1.36,0.01-2.02-0.09c-0.75-0.11-1.08-0.5-1.11-1.28c-0.03-0.75-0.02-1.51,0-2.28
		c0.01-0.6,0.32-0.99,0.91-1.14c0.22-0.05,0.44-0.13,0.66-0.14c1-0.07,2-0.15,2.98,0.17c0.6,0.19,0.78,0.45,0.79,1.08
		c0,0.76-0.02,1.52,0.01,2.28c0.02,0.51-0.07,0.93-0.62,1.18c0.36,0.33,0.65,0.6,1.02,0.94C39.11,49.95,38.79,49.99,38.49,49.93z
		 M44.57,49.17c0,0.03-0.13,0.07-0.19,0.07c-1.13-0.03-2.28,0.11-3.4-0.11c-0.51-0.1-0.94-0.3-1.1-0.85
		c-0.03-0.13-0.05-0.26-0.05-0.39c-0.01-1.08,0.01-2.16-0.01-3.25c0-0.28,0.05-0.4,0.38-0.39c0.91,0.03,0.75-0.09,0.76,0.75
		c0.01,0.42,0,0.83,0,1.25c0,0.48,0.01,0.95,0,1.42c-0.03,0.81,0.21,0.81,0.82,0.8c0.81-0.01,1.63-0.01,2.45,0
		c0.13,0,0.34,0.03,0.36,0.08C44.61,48.76,44.59,48.98,44.57,49.17z M46.4,49.21c-0.13,0.11-0.13-0.34-0.31-0.08
		c-0.02,0.03-0.14,0.03-0.15,0.01c-0.27-0.52-0.11,0.24-0.31,0.09c-0.01-0.14-0.02-0.28-0.05-0.42c-0.02-0.09-0.07-0.17-0.1-0.24
		c-0.08,0.07-0.19,0.13-0.23,0.22c-0.05,0.13-0.04,0.28-0.13,0.43C45.06,49,45,48.77,44.93,48.51c0.38,0.02,0.87-0.22,1.07,0.4
		c0.11-0.16,0.2-0.3,0.29-0.44c0.03,0.01,0.07,0.03,0.1,0.04C46.4,48.74,46.4,48.97,46.4,49.21z"/>
</g>
</svg>
