<?xml version="1.0" encoding="utf-8"?>
<!-- Generator: Adobe Illustrator 19.1.0, SVG Export Plug-In . SVG Version: 6.00 Build 0)  -->
<svg version="1.1" id="Ebene_1" xmlns="http://www.w3.org/2000/svg" xmlns:xlink="http://www.w3.org/1999/xlink" x="0px" y="0px"
	 viewBox="0 2.83 60 60" style="enable-background:new 0 2.83 60 60;" xml:space="preserve">
<style type="text/css">
	.st0{fill:#E9B400;}
	.st1{fill:#1E1E1E;}
	.st2{display:none;}
	.st3{display:inline;}
	.st4{fill:#FFFFFF;}
</style>
<circle class="st0" cx="30" cy="32.83" r="30"/>
<rect x="13.17" y="17.99" class="st1" width="33.5" height="31.83"/>
<g>
	<path class="st0" d="M10.16,12.99v39.69h39.69V12.99H10.16z M15.51,20.34c0-1.03,0.85-1.87,1.87-1.87h24.76
		c1.03,0,1.87,0.85,1.87,1.87v0.77c0,1.03-0.85,1.87-1.87,1.87H17.38c-1.03,0-1.87-0.85-1.87-1.87V20.34z M15.51,26.37
		c0-1.03,0.85-1.87,1.87-1.87h24.76c1.03,0,1.87,0.85,1.87,1.87v0.77c0,1.03-0.85,1.87-1.87,1.87H17.38c-1.03,0-1.87-0.85-1.87-1.87
		V26.37z M15.51,32.9c0-1.03,0.85-1.87,1.87-1.87h24.76c1.03,0,1.87,0.85,1.87,1.87v0.77c0,1.03-0.85,1.87-1.87,1.87H17.38
		c-1.03,0-1.87-0.85-1.87-1.87V32.9z M15.51,38.93c0-1.03,0.85-1.87,1.87-1.87h24.76c1.03,0,1.87,0.85,1.87,1.87v0.77
		c0,1.03-0.85,1.87-1.87,1.87H17.38c-1.03,0-1.87-0.85-1.87-1.87V38.93z M45.03,48.37h-10.8v0.72c0,0.26-0.21,0.47-0.47,0.47h-7.73
		c-0.26,0-0.47-0.21-0.47-0.47v-0.72H13.62l1.01-1.32h10.93v-0.6c0-0.26,0.21-0.47,0.47-0.47h2.92v-3.39h1.69v3.39h3.11
		c0.26,0,0.47,0.21,0.47,0.47v0.6h11.81L45.03,48.37z"/>
</g>
<g class="st2">
	<g class="st3">
		<path d="M-9.29,21.66c26.34,0,52.68,0,79.02,0c0,12.77,0,25.54,0,38.3c-26.34,0-52.68,0-79.02,0C-9.29,47.2-9.29,34.43-9.29,21.66
			z M20.31,36.72c0-0.03,0-0.05,0-0.08c-0.69,0-1.39,0.02-2.08-0.01c-0.45-0.02-0.66,0.16-0.73,0.6c-0.15,0.95-0.34,1.9-0.52,2.85
			c-0.45,2.36-0.9,4.72-1.38,7.08c-0.09,0.43,0.05,0.57,0.46,0.56c0.49-0.01,0.98-0.01,1.48,0c0.38,0.01,0.56-0.16,0.63-0.53
			c0.11-0.66,0.26-1.32,0.37-1.99c0.05-0.32,0.22-0.42,0.52-0.42c0.71,0.01,1.42,0.01,2.13,0c2.72-0.05,4.79-2.11,4.86-4.82
			c0.05-1.83-1.08-3.12-2.9-3.24C22.2,36.67,21.25,36.72,20.31,36.72z M38.73,44.8C38.73,44.8,38.73,44.8,38.73,44.8
			c0.27,0,0.55,0,0.82,0c2.83-0.04,4.8-1.93,4.95-4.77c0.1-1.85-1.03-3.19-2.88-3.29c-1.67-0.09-3.35-0.06-5.02-0.1
			c-0.39-0.01-0.55,0.19-0.61,0.54c-0.16,0.92-0.33,1.83-0.5,2.74c-0.46,2.41-0.92,4.83-1.4,7.24c-0.09,0.44,0.05,0.57,0.45,0.56
			c0.47-0.01,0.95-0.02,1.42,0c0.43,0.02,0.62-0.17,0.69-0.58c0.1-0.65,0.26-1.28,0.37-1.93c0.05-0.32,0.21-0.43,0.52-0.42
			C37.93,44.81,38.33,44.8,38.73,44.8z M31.17,44.79c0.83,0,1.56,0.02,2.28-0.02c0.13-0.01,0.33-0.23,0.36-0.38
			c0.35-1.73,0.71-3.46,0.99-5.2c0.2-1.23-0.44-2.12-1.67-2.34c-0.87-0.15-1.77-0.15-2.66-0.2c-0.28-0.02-0.57,0-0.92,0
			c0.04-0.3,0.05-0.51,0.09-0.72c0.1-0.54,0.19-1.08,0.3-1.61c0.08-0.38-0.04-0.55-0.44-0.53c-0.44,0.02-0.88,0.04-1.31-0.01
			c-0.53-0.06-0.75,0.16-0.84,0.67c-0.31,1.7-0.65,3.4-0.98,5.1c-0.31,1.57-0.61,3.15-0.93,4.72c-0.08,0.41,0.04,0.58,0.46,0.56
			c0.4-0.02,0.8,0,1.2,0c0.8,0,0.8,0,0.95-0.77c0.3-1.59,0.61-3.19,0.89-4.78c0.08-0.44,0.26-0.68,0.75-0.64
			c0.51,0.04,1.02,0.01,1.53,0.04c0.77,0.04,1.01,0.35,0.88,1.1c-0.15,0.83-0.3,1.65-0.46,2.47C31.5,43.04,31.34,43.86,31.17,44.79z
			"/>
		<path class="st4" d="M20.31,36.72c0.95,0,1.9-0.05,2.84,0.01c1.83,0.12,2.95,1.41,2.9,3.24c-0.07,2.72-2.15,4.78-4.86,4.82
			c-0.71,0.01-1.42,0.01-2.13,0c-0.3,0-0.47,0.1-0.52,0.42c-0.11,0.66-0.26,1.32-0.37,1.99c-0.06,0.37-0.25,0.54-0.63,0.53
			c-0.49-0.01-0.98-0.01-1.48,0c-0.4,0.01-0.54-0.13-0.46-0.56c0.47-2.36,0.92-4.72,1.38-7.08c0.18-0.95,0.37-1.9,0.52-2.85
			c0.07-0.45,0.28-0.62,0.73-0.6c0.69,0.02,1.39,0.01,2.08,0.01C20.31,36.67,20.31,36.69,20.31,36.72z M20.25,42.89
			c2.04-0.02,2.81-0.67,3.11-2.65c0.14-0.89-0.24-1.47-1.14-1.58c-0.66-0.09-1.34-0.07-2.01-0.1c-0.32-0.02-0.43,0.16-0.48,0.46
			c-0.15,0.88-0.31,1.75-0.48,2.63C18.98,43.05,18.82,42.88,20.25,42.89z"/>
		<path class="st4" d="M38.73,44.8c-0.4,0-0.8,0.01-1.2,0c-0.31-0.01-0.46,0.11-0.52,0.42c-0.11,0.65-0.27,1.28-0.37,1.93
			c-0.07,0.42-0.26,0.61-0.69,0.58c-0.47-0.02-0.95-0.01-1.42,0c-0.4,0.01-0.54-0.13-0.45-0.56c0.49-2.41,0.94-4.82,1.4-7.24
			c0.17-0.91,0.34-1.83,0.5-2.74c0.06-0.36,0.22-0.55,0.61-0.54c1.67,0.03,3.35,0.01,5.02,0.1c1.86,0.1,2.99,1.44,2.88,3.29
			c-0.16,2.84-2.12,4.73-4.95,4.77C39.28,44.8,39.01,44.8,38.73,44.8C38.73,44.8,38.73,44.8,38.73,44.8z M37.58,42.83
			c0.12,0.03,0.2,0.06,0.29,0.06c0.53,0,1.06,0.01,1.59-0.02c1.14-0.07,1.86-0.65,2.2-1.73c0.09-0.29,0.14-0.6,0.19-0.91
			c0.15-0.86-0.23-1.44-1.11-1.56c-0.66-0.09-1.34-0.07-2.01-0.11c-0.32-0.02-0.44,0.14-0.5,0.44c-0.2,1.15-0.43,2.29-0.64,3.44
			C37.56,42.56,37.58,42.68,37.58,42.83z"/>
		<path class="st4" d="M31.17,44.79c0.18-0.93,0.33-1.75,0.48-2.57c0.15-0.82,0.31-1.65,0.46-2.47c0.13-0.75-0.1-1.06-0.88-1.1
			c-0.51-0.03-1.02,0-1.53-0.04c-0.49-0.04-0.67,0.2-0.75,0.64c-0.29,1.6-0.59,3.19-0.89,4.78C27.9,44.8,27.9,44.8,27.1,44.8
			c-0.4,0-0.8-0.02-1.2,0c-0.43,0.02-0.55-0.14-0.46-0.56c0.32-1.57,0.63-3.14,0.93-4.72c0.33-1.7,0.67-3.4,0.98-5.1
			c0.09-0.5,0.31-0.72,0.84-0.67c0.43,0.05,0.87,0.02,1.31,0.01c0.4-0.02,0.52,0.16,0.44,0.53c-0.11,0.54-0.21,1.07-0.3,1.61
			c-0.04,0.21-0.05,0.42-0.09,0.72c0.35,0,0.64-0.01,0.92,0c0.89,0.05,1.79,0.05,2.66,0.2c1.23,0.22,1.87,1.11,1.67,2.34
			c-0.28,1.74-0.64,3.47-0.99,5.2c-0.03,0.15-0.23,0.38-0.36,0.38C32.73,44.81,32,44.79,31.17,44.79z"/>
		<path d="M20.25,42.89c-1.44-0.01-1.27,0.15-1-1.25c0.17-0.87,0.33-1.75,0.48-2.63c0.05-0.3,0.16-0.47,0.48-0.46
			c0.67,0.03,1.35,0.02,2.01,0.1c0.9,0.12,1.28,0.69,1.14,1.58C23.06,42.22,22.29,42.88,20.25,42.89z"/>
		<path d="M37.58,42.83c0-0.14-0.02-0.27,0-0.39c0.21-1.15,0.44-2.29,0.64-3.44c0.05-0.3,0.18-0.46,0.5-0.44
			c0.67,0.04,1.35,0.02,2.01,0.11c0.88,0.12,1.26,0.69,1.11,1.56c-0.05,0.3-0.1,0.61-0.19,0.91c-0.34,1.09-1.06,1.66-2.2,1.73
			c-0.53,0.03-1.06,0.02-1.59,0.02C37.78,42.89,37.69,42.85,37.58,42.83z"/>
	</g>
</g>
</svg>
