<?xml version="1.0" encoding="utf-8"?>
<!-- Generator: Adobe Illustrator 19.1.0, SVG Export Plug-In . SVG Version: 6.00 Build 0)  -->
<svg version="1.1" id="Ebene_1" xmlns="http://www.w3.org/2000/svg" xmlns:xlink="http://www.w3.org/1999/xlink" x="0px" y="0px"
	 viewBox="0 2.83 60 60" style="enable-background:new 0 2.83 60 60;" xml:space="preserve">
<style type="text/css">
	.st0{fill:#E9B400;}
	.st1{fill:#1E1E1E;}
	.st2{fill:#F06529;}
	.st3{fill:#EAE9E8;}
	.st4{fill:#EAE9E9;}
	.st5{fill:#FEFEFD;}
	.st6{fill:#FEFEFE;}
</style>
<circle class="st0" cx="30" cy="32.83" r="30"/>
<rect x="16.17" y="16.83" class="st1" width="28.33" height="31.33"/>
<path class="st0" d="M10.16,12.99v39.69h39.69V12.99H10.16z M41.2,44.6L30.3,47.53L19.51,44.6l-2.43-27.07h26.54L41.2,44.6z"/>
<polygon class="st2" points="30.36,19.8 41.19,19.8 39.13,42.88 30.36,45.32 "/>
<polygon class="st3" points="30.35,29.76 30.36,33.12 22.92,33.12 22.02,23.05 30.36,23.05 30.36,26.41 25.67,26.41 25.97,29.76 "/>
<polygon class="st4" points="23.54,39.99 23.07,34.77 26.42,34.77 26.65,37.42 30.36,38.38 30.36,41.85 "/>
<path class="st5" d="M30.36,38.38l3.68-0.97l0.4-4.28l-4.09,0.01l-0.01-3.37h7.71c0,0-0.6,6.81-0.91,10.24
	c-2.26,0.61-6.79,1.85-6.79,1.85V38.38z"/>
<polygon class="st6" points="30.36,26.41 30.36,23.05 38.68,23.05 38.37,26.41 "/>
</svg>
