<?xml version="1.0" encoding="utf-8"?>
<!-- Generator: Adobe Illustrator 19.1.0, SVG Export Plug-In . SVG Version: 6.00 Build 0)  -->
<svg version="1.1" id="Ebene_1" xmlns="http://www.w3.org/2000/svg" xmlns:xlink="http://www.w3.org/1999/xlink" x="0px" y="0px"
	 viewBox="0 2.83 60 60" style="enable-background:new 0 2.83 60 60;" xml:space="preserve">
<style type="text/css">
	.st0{fill:#E9B400;}
	.st1{fill:#1E1E1E;}
	.st2{fill:#F0BE27;}
	.st3{fill:#EBEBEA;}
	.st4{fill:#FEFEFD;}
</style>
<circle class="st0" cx="30" cy="32.83" r="30"/>
<rect x="16.5" y="16.91" class="st1" width="27.5" height="31.25"/>
<path class="st0" d="M10.16,12.99v39.69h39.69V12.99H10.16z M41.38,44.68l-11.01,2.84l-10.56-2.79l-2.78-27.2h26.7L41.38,44.68z"/>
<polyline class="st2" points="30.4,19.69 41.48,19.69 39.38,43.02 30.4,45.5 "/>
<polygon class="st3" points="30.38,22.94 30.38,26.1 27.35,26.33 26.92,30.73 30.38,30.94 30.38,33.95 22.99,33.95 24.14,22.91 "/>
<polygon class="st3" points="30.38,41.93 23.4,40.17 22.94,35.49 26.32,35.47 26.55,37.83 30.38,38.83 "/>
<polygon class="st4" points="30.38,38.83 33.85,37.82 34.29,33.95 30.38,33.95 30.38,30.94 37.96,30.95 37,40.22 30.38,41.93 "/>
<polygon class="st4" points="30.38,26.1 30.38,22.94 37.32,22.94 37.97,29.44 34.6,29.44 34.32,26.27 "/>
</svg>
