<?xml version="1.0" encoding="utf-8"?>
<!-- Generator: Adobe Illustrator 19.1.0, SVG Export Plug-In . SVG Version: 6.00 Build 0)  -->
<svg version="1.1" id="Ebene_1" xmlns="http://www.w3.org/2000/svg" xmlns:xlink="http://www.w3.org/1999/xlink" x="0px" y="0px"
	 viewBox="0 2.83 60 60" style="enable-background:new 0 2.83 60 60;" xml:space="preserve">
<style type="text/css">
	.st0{fill:#E9B400;}
</style>
<circle class="st0" cx="30.44" cy="32.85" r="28.19"/>
<path d="M30.08,61.86c-0.19,0-0.39,0-0.58-0.01c-7.67-0.15-14.88-3.31-20.29-8.9c-5.45-5.63-8.37-13.02-8.21-20.8
	c0.16-7.74,3.36-14.98,9.02-20.41c5.64-5.4,13.03-8.27,20.79-8.09C46.6,4.04,59.31,17.11,59.15,32.8
	c0.07,7.73-2.97,15.04-8.58,20.59C45.04,58.87,37.79,61.86,30.08,61.86z M30.11,5.29c-7.09,0-13.8,2.7-18.96,7.64
	c-5.35,5.12-8.37,11.96-8.52,19.26c-0.14,7.34,2.61,14.32,7.76,19.63c5.11,5.28,11.91,8.26,19.16,8.4
	c7.49,0.16,14.54-2.69,19.89-7.99C54.71,47,57.59,40.1,57.52,32.8C57.68,17.98,45.68,5.64,30.77,5.29l0,0
	C30.55,5.29,30.33,5.29,30.11,5.29z M43.77,49.21h-27V29.7h27V49.21z M18.4,47.58h23.75V31.33H18.4V47.58z M43.77,49.21h-27V29.7h27
	V49.21z M18.4,47.58h23.75V31.33H18.4V47.58z M43.77,49.21h-27V29.7h27V49.21z M18.4,47.58h23.75V31.33H18.4V47.58z M43.77,49.21
	h-27V29.7h27V49.21z M18.4,47.58h23.75V31.33H18.4V47.58z"/>
<path d="M24.25,27.09v-0.06c0.01-0.66,0-1.31,0-1.97c0-0.88-0.01-1.77,0.01-2.65c0.09-3.32,2.9-5.94,6.16-5.88
	c3.17,0.06,5.79,2.74,5.85,5.98c0.01,1.2,0.01,2.38,0,3.58l0,1h2.67c0-0.37,0.01-0.74,0.01-1.11c0.02-1.41,0.03-2.75-0.03-4.1
	c-0.12-2.43-1.33-4.71-3.32-6.25c-2.01-1.56-4.55-2.17-6.96-1.67c-4.13,0.85-6.83,3.95-7.06,8.11l0,0
	c-0.08,1.37-0.05,2.73-0.02,4.16c0.01,0.29,0.01,0.57,0.02,0.86H24.25"/>
</svg>
