<?xml version="1.0" encoding="utf-8"?>
<!-- Generator: Adobe Illustrator 19.1.0, SVG Export Plug-In . SVG Version: 6.00 Build 0)  -->
<svg version="1.1" id="Ebene_1" xmlns="http://www.w3.org/2000/svg" xmlns:xlink="http://www.w3.org/1999/xlink" x="0px" y="0px"
	 viewBox="0 2.83 60 60" style="enable-background:new 0 2.83 60 60;" xml:space="preserve">
<style type="text/css">
	.st0{fill:#E9B400;}
</style>
<circle class="st0" cx="30.44" cy="33.82" r="28.19"/>
<path d="M30.08,62.83c-0.19,0-0.39,0-0.58-0.01c-7.67-0.15-14.88-3.31-20.29-8.9C3.76,48.29,0.84,40.9,1,33.12
	c0.16-7.74,3.36-14.98,9.02-20.41c5.64-5.4,13.03-8.27,20.79-8.09c15.79,0.39,28.5,13.46,28.34,29.15
	c0.07,7.73-2.97,15.04-8.58,20.59C45.04,59.84,37.79,62.83,30.08,62.83z M30.11,6.26c-7.09,0-13.8,2.7-18.96,7.64
	C5.8,19.02,2.78,25.86,2.63,33.16c-0.14,7.34,2.61,14.32,7.76,19.63c5.11,5.28,11.91,8.26,19.16,8.4
	c7.49,0.16,14.54-2.69,19.89-7.99c5.27-5.23,8.15-12.13,8.08-19.43C57.68,18.95,45.68,6.61,30.77,6.26l0,0
	C30.55,6.26,30.33,6.26,30.11,6.26z M43.77,50.18h-27V30.67h27V50.18z M18.4,48.55h23.75V32.3H18.4V48.55z M43.77,50.18h-27V30.67
	h27V50.18z M18.4,48.55h23.75V32.3H18.4V48.55z M43.77,50.18h-27V30.67h27V50.18z M18.4,48.55h23.75V32.3H18.4V48.55z M43.77,50.18
	h-27V30.67h27V50.18z M18.4,48.55h23.75V32.3H18.4V48.55z"/>
<path d="M25.95,27.85l-0.04-0.04c-0.46-0.47-0.93-0.92-1.4-1.38c-0.63-0.62-1.27-1.23-1.88-1.87c-2.3-2.39-2.2-6.23,0.13-8.51
	c2.27-2.22,6.01-2.2,8.37,0.03c0.86,0.83,1.7,1.66,2.55,2.51l0.71,0.7l1.87-1.9c-0.26-0.26-0.52-0.53-0.78-0.79
	c-0.99-1-1.94-1.95-2.94-2.85c-1.82-1.62-4.29-2.36-6.78-2.02c-2.52,0.34-4.74,1.72-6.07,3.79c-2.29,3.54-1.98,7.64,0.83,10.72l0,0
	c0.92,1.02,1.91,1.95,2.95,2.93c0.21,0.2,0.41,0.39,0.63,0.59L25.95,27.85"/>
</svg>
