<?xml version="1.0" encoding="utf-8"?>
<!-- Generator: Adobe Illustrator 19.1.0, SVG Export Plug-In . SVG Version: 6.00 Build 0)  -->
<svg version="1.1" id="Ebene_1" xmlns="http://www.w3.org/2000/svg" xmlns:xlink="http://www.w3.org/1999/xlink" x="0px" y="0px"
	 viewBox="0 0 62.75 86.5" style="enable-background:new 0 0 62.75 86.5;" xml:space="preserve">
<style type="text/css">
	.st0{fill:#FFFFFF;}
</style>
<g id="Südamerika">
	<path class="st0" d="M46.1328,72.782l-4.3878-3.2049l-4.9933,2.1223l-0.1014,0.8875c2.6888,2.0582,5.5104,3.9807,8.3948,5.7197
		l0.4799-0.2047L46.1328,72.782z"/>
	<polygon class="st0" points="31.9097,67.391 36.2953,70.6036 41.291,68.4726 41.8985,63.1526 37.5113,59.9479 32.5178,62.07 	"/>
	<path class="st0" d="M60.7215,85.8254l0.2526-2.2097l-4.3949-3.2074l-4.2978,1.8266
		C55.0325,83.5715,57.864,84.7761,60.7215,85.8254z"/>
	<polygon class="st0" points="46.7207,78.2229 51.1085,81.4284 56.1019,79.3053 56.71,73.9852 52.3244,70.7723 47.3289,72.9026 	"/>
	<polygon class="st0" points="52.4761,64.3559 48.0905,61.143 43.095,63.2736 42.4871,68.5936 46.8748,71.7985 51.8684,69.6761 	"/>
	<path class="st0" d="M14.2999,23.4316l-4.3874-3.2054l-4.9937,2.1231l-0.4438,3.8834c0.2097,0.6891,0.4253,1.3698,0.6422,2.0278
		l3.5793,2.6218l4.9955-2.1307L14.2999,23.4316z"/>
	<path class="st0" d="M10.0656,13.8017L5.6787,10.597l-4.2659,1.8137c0.3619,2.5644,0.8361,5.1321,1.4114,7.6422l1.6382,1.2002
		l4.9959-2.1305L10.0656,13.8017z"/>
	<path class="st0" d="M22.8048,42.6928L18.4195,39.48l-4.9957,2.1301l-0.4656,4.078c0.4471,0.768,0.9251,1.5593,1.4559,2.4104
		l2.7889,2.0374l4.9937-2.1229L22.8048,42.6928z"/>
	<polygon class="st0" points="33.3827,43.9146 28.9878,40.7067 23.9941,42.8298 23.3861,48.15 27.772,51.363 32.7751,49.2343 	"/>
	<polygon class="st0" points="34.572,44.0507 33.9645,49.3705 38.3581,52.5781 43.352,50.455 43.9597,45.135 39.5741,41.9222 	"/>
	<path class="st0" d="M18.5515,33.0666l-4.386-3.2131l-4.9958,2.1304l-0.5921,5.1838l0.0194,0.0436
		c0.026,0.0586,0.052,0.1171,0.0782,0.1756l4.2741,3.1228l4.9944-2.1231L18.5515,33.0666z"/>
	<polygon class="st0" points="29.1288,34.2884 24.7344,31.0804 19.7407,33.2036 19.1329,38.5237 23.5183,41.7365 28.5205,39.6078 	
		"/>
	<polygon class="st0" points="39.7059,35.5086 35.3203,32.2957 30.3181,34.4246 29.7098,39.744 34.1041,42.9518 39.0982,40.8288 	
		"/>
	<polygon class="st0" points="37.6272,53.5465 33.2413,50.3335 28.2393,52.4621 27.6314,57.782 32.0256,60.9898 37.0193,58.8667 	
		"/>
	<polygon class="st0" points="48.1975,54.7659 43.8103,51.5606 38.8164,53.6834 38.2085,59.0037 42.5938,62.2165 47.5898,60.0853 	
		"/>
	<polygon class="st0" points="14.8756,28.8957 19.263,32.1006 24.2567,29.978 24.8648,24.6574 20.479,21.445 15.4835,23.5758 	"/>
	<polygon class="st0" points="20.6308,15.0281 16.2456,11.8153 11.2495,13.9465 10.6417,19.2665 15.0291,22.4713 20.0227,20.3487 	
		"/>
	<path class="st0" d="M1.2345,11.0824l3.9058-1.6603l0.6081-5.3203L1.3629,0.8892l-0.83,0.354
		C0.5911,4.5403,0.8269,7.8444,1.2345,11.0824z"/>
	<polygon class="st0" points="25.4459,30.1151 29.8314,33.3283 34.8342,31.1992 35.4422,25.8792 31.0479,22.672 26.0539,24.7944 	
		"/>
	<path class="st0" d="M22.6003,59.2803l3.8418-1.6346l0.6078-5.3199l-4.3945-3.2076l-4.9936,2.1228l-0.17,1.4874
		C19.0954,54.9864,20.8117,57.1877,22.6003,59.2803z"/>
</g>
</svg>
