<?xml version="1.0" encoding="utf-8"?>
<!-- Generator: Adobe Illustrator 19.1.0, SVG Export Plug-In . SVG Version: 6.00 Build 0)  -->
<svg version="1.1" id="Ebene_1" xmlns="http://www.w3.org/2000/svg" xmlns:xlink="http://www.w3.org/1999/xlink" x="0px" y="0px"
	 viewBox="0 0 69.5 79.375" style="enable-background:new 0 0 69.5 79.375;" xml:space="preserve">
<style type="text/css">
	.st0{fill:#FFFFFF;}
</style>
<g id="EUROPA">
	<polygon class="st0" points="22.4421,63.2126 26.8275,66.4251 31.8233,64.2943 32.4308,58.9743 28.0436,55.7693 23.05,57.8917 	"/>
	<polygon class="st0" points="17.6068,48.1282 13.221,44.9159 8.2189,47.044 7.6109,52.3642 12.0052,55.5715 16.9988,53.4493 	"/>
	<polygon class="st0" points="5.5321,70.402 9.9263,73.6092 14.9202,71.4861 15.5279,66.166 11.1423,62.9531 6.1399,65.082 	"/>
	<polygon class="st0" points="23.9204,39.72 19.5349,36.5069 14.532,38.6355 13.9241,43.9554 18.3187,47.1631 23.3124,45.0406 	"/>
	<polygon class="st0" points="30.2564,31.3094 25.8696,28.1047 20.8759,30.2278 20.2678,35.5478 24.6533,38.7608 29.6492,36.6302 	
		"/>
	<polygon class="st0" points="33.0072,64.4389 37.394,67.6436 42.3877,65.5207 42.9957,60.2005 38.6104,56.9877 33.6146,59.1178 	
		"/>
	<polygon class="st0" points="53.5735,61.4222 49.1787,58.2143 44.1849,60.3375 43.5769,65.6577 47.9628,68.8707 52.966,66.7419 	
		"/>
	<polygon class="st0" points="64.1505,62.6427 59.765,59.4299 54.7628,61.5583 54.1553,66.8781 58.5489,70.0858 63.5428,67.9627 	
		"/>
	<polygon class="st0" points="38.7423,50.5743 34.3563,47.3612 29.3605,49.4916 28.7529,54.8119 33.1401,58.0174 38.1345,55.8943 	
		"/>
	<polygon class="st0" points="49.3196,51.7961 44.9253,48.588 39.9315,50.7112 39.3237,56.0313 43.7092,59.2441 48.7113,57.1155 	
		"/>
	<polygon class="st0" points="59.8967,53.0163 55.5112,49.8034 50.5089,51.9323 49.9007,57.2517 54.295,60.4595 59.2891,58.3364 	
		"/>
	<polygon class="st0" points="36.6635,68.6118 32.2777,65.3991 27.2819,67.5302 26.6743,72.8496 31.062,76.0543 36.0555,73.9321 	
		"/>
	<polygon class="st0" points="56.2143,48.8431 60.6085,52.0503 65.6024,49.9281 66.2105,44.6072 61.8244,41.395 56.8223,43.5231 	
		"/>
	<polygon class="st0" points="40.2135,37.8564 40.8217,32.5357 36.4364,29.323 31.4404,31.4542 30.8325,36.7741 35.22,39.979 	"/>
	<polygon class="st0" points="51.3994,33.7577 47.0046,30.5503 42.0109,32.6727 41.4027,37.9934 45.7887,41.206 50.7915,39.0776 	
		"/>
	<polygon class="st0" points="61.9767,34.9779 57.5912,31.7651 52.5887,33.8938 51.9808,39.2138 56.3749,42.4211 61.3686,40.2989 	
		"/>
	<path class="st0" d="M68.1425,27.3408c-1.5209-1.3464-3.1028-2.6559-4.7099-3.8989l-4.5723,1.9503l-0.6075,5.32l4.3871,3.2049
		l4.9935-2.1223L68.1425,27.3408z"/>
	<polygon class="st0" points="36.5163,22.8315 32.1222,19.6242 27.1284,21.7465 26.5204,27.0668 30.9061,30.2796 35.9084,28.151 	
		"/>
	<polygon class="st0" points="26.0983,67.3854 21.7109,64.1806 16.7171,66.303 16.1094,71.6231 20.4949,74.836 25.4903,72.7058 	"/>
	<polygon class="st0" points="55.633,43.3869 51.2387,40.1796 46.2448,42.3021 45.6367,47.6228 50.0222,50.836 55.025,48.7069 	"/>
</g>
</svg>
