<?xml version="1.0" encoding="UTF-8" standalone="no"?>
<!-- Generator: Adobe Illustrator 19.1.0, SVG Export Plug-In . SVG Version: 6.00 Build 0)  -->

<svg
   xmlns:dc="http://purl.org/dc/elements/1.1/"
   xmlns:cc="http://creativecommons.org/ns#"
   xmlns:rdf="http://www.w3.org/1999/02/22-rdf-syntax-ns#"
   xmlns:svg="http://www.w3.org/2000/svg"
   xmlns="http://www.w3.org/2000/svg"
   xmlns:sodipodi="http://sodipodi.sourceforge.net/DTD/sodipodi-0.dtd"
   xmlns:inkscape="http://www.inkscape.org/namespaces/inkscape"
   version="1.1"
   id="Ebene_1"
   x="0px"
   y="0px"
   viewBox="0 0 202.5 103.91"
   style="enable-background:new 0 0 202.5 103.91;"
   xml:space="preserve"
   sodipodi:docname="logo-font-01_neu.svg"
   inkscape:version="0.92.4 (5da689c313, 2019-01-14)"><metadata
   id="metadata11962"><rdf:RDF><cc:Work
       rdf:about=""><dc:format>image/svg+xml</dc:format><dc:type
         rdf:resource="http://purl.org/dc/dcmitype/StillImage" /><dc:title></dc:title></cc:Work></rdf:RDF></metadata><defs
   id="defs11960" /><sodipodi:namedview
   pagecolor="#ffffff"
   bordercolor="#666666"
   borderopacity="1"
   objecttolerance="10"
   gridtolerance="10"
   guidetolerance="10"
   inkscape:pageopacity="0"
   inkscape:pageshadow="2"
   inkscape:window-width="1680"
   inkscape:window-height="987"
   id="namedview11958"
   showgrid="false"
   inkscape:pagecheckerboard="true"
   inkscape:zoom="5.8765432"
   inkscape:cx="101.25"
   inkscape:cy="51.955002"
   inkscape:window-x="-8"
   inkscape:window-y="-8"
   inkscape:window-maximized="1"
   inkscape:current-layer="Ebene_1" />
<style
   type="text/css"
   id="style11903">
	.st0{fill:#FFFFFF;}
</style>
<path
   class="st0"
   d="M2.4934,14.3637c0-8.6991,4.0349-13.0502,12.1048-13.0502c7.905,0,11.8586,4.2964,11.8586,12.8861v6.6458  h-4.0623c0-0.3283,0.0209-1.223,0.0611-2.6873c0.0418-1.4627,0.062-2.4266,0.062-2.8933c0-3.7751-0.6364-6.4688-1.9076-8.0828  c-1.2728-1.614-3.3446-2.4218-6.217-2.4218c-3.1459,0-5.3078,1.2455-6.4833,3.7348c-0.848,1.7508-1.272,4.3769-1.272,7.8784  c0,0.9301-0.0346,3.0236-0.103,6.2773c-0.0684,3.2569-0.1022,5.3488-0.1022,6.2789v18.0547c0,7.769,2.5441,11.6535,7.6322,11.6535  c2.8723,0,5.1018-1.3807,6.6884-4.1452c1.3396-2.3236,2.0106-5.0189,2.0106-8.0828v-8.5752h-8.8632v-3.5305h12.8024V61.264h-3.0365  v-4.6778c-2.4073,3.7204-5.554,5.5805-9.4377,5.5805c-4.9514,0-8.2887-1.9149-10.0121-5.7447  c-1.1489-2.5441-1.7234-6.6474-1.7234-12.31V14.3637z"
   id="path11905" />
<path
   class="st0"
   d="M35.8946,2.1341h3.2827v59.294h-3.2827V2.1341z"
   id="path11907" />
<path
   class="st0"
   d="M45.1271,30.5292c0-7.7674,3.4194-11.6535,10.2583-11.6535c6.3739,0,9.56,3.3792,9.56,10.136v22.158  c0,2.9818-0.8609,5.4518-2.5843,7.4069s-3.9263,2.9335-6.6064,2.9335c-3.693,0-6.3875-0.9365-8.0836-2.8112  c-1.6968-1.8731-2.5441-4.8886-2.5441-9.0467V30.5292z M55.5496,58.3515c4.0486,0,6.0729-3.0381,6.0729-9.111V31.1053  c0-5.9362-2.2158-8.905-6.6474-8.905c-4.2948,0-6.4422,3.5562-6.4422,10.6687c0,1.9422,0,4.8564,0,8.7409l0.041,8.7393  C48.5739,55.6835,50.8983,58.3515,55.5496,58.3515z"
   id="path11909" />
<path
   class="st0"
   d="M71.6749,1.9298h3.2827v20.3526c2.8739-2.5167,5.4438-3.7751,7.7143-3.7751  c3.4194,0,5.7447,1.3404,6.9773,4.0213c0.8464,1.8328,1.2712,4.6923,1.2712,8.5768v19.9824c0,3.0638-0.848,5.5677-2.5441,7.5083  c-1.696,1.9439-3.899,2.9142-6.6056,2.9142c-2.0533,0-4.2675-1.231-6.649-3.693v3.3647h-3.4468V1.9298z M87.6377,29.2162  c0-5.0045-1.9406-7.5083-5.8235-7.5083c-4.57,0-6.8566,3.1877-6.8566,9.5616v17.7264c0,2.3783,0.4956,4.4445,1.4869,6.1952  c1.239,2.1337,2.9464,3.2006,5.1219,3.2006c4.047,0,6.0713-2.7082,6.0713-8.1246V29.2162z"
   id="path11911" />
<path
   class="st0"
   d="M97.7319,32.6227c0-4.3222,0.5198-7.5099,1.5609-9.56c1.4482-2.8739,4.1162-4.3093,8.0007-4.3093  c6.6474,0,9.9703,3.9939,9.9703,11.9817v9.7659h-16.0014l-0.1641,7.3039c0,6.8389,1.9068,10.2583,5.7221,10.2583  c3.3197,0,5.4325-1.2165,6.3384-3.6512c0.4393-1.2036,0.6581-3.8169,0.6581-7.8382h3.3245c0.0821,1.7781,0.1223,2.845,0.1223,3.2006  c0,7.6869-3.1797,11.5312-9.5374,11.5312c-3.1121,0-5.5548-0.9574-7.3297-2.8739c-1.7765-1.9133-2.6648-4.5265-2.6648-7.8366  V32.6227z M113.817,37.6706l0.1641-5.7447c0-6.649-1.997-9.9719-5.9893-9.9719c-1.9986,0-3.619,0.6018-4.8629,1.8055  c-1.2455,1.2036-1.8666,2.8048-1.8666,4.8001v9.111H113.817z"
   id="path11913" />
<path
   class="st0"
   d="M123.7889,14.6083c0-4.1033,0.9848-7.3233,2.9544-9.663c1.9696-2.3381,4.7052-3.508,8.2067-3.508  c8.0425,0,12.0638,4.1178,12.0638,12.3502v7.2219h-4.1452c0,0.7676,0-1.1618,0-5.7849c0-3.1185-0.4087-5.4293-1.2278-6.9338  c-1.1184-1.997-3.1234-2.9962-6.015-2.9962c-5.2652,0-7.8977,3.693-7.8977,11.079l0.1239,30.4886  c0,7.6596,2.7211,11.4893,8.1648,11.4893c2.9544,0,4.9787-1.0122,6.0729-3.0381c0.7933-1.4482,1.1908-3.8008,1.1908-7.0577v-7.2621  h4.1838l-0.1641,9.848c-0.3556,4.0486-1.4708,6.9692-3.3438,8.7602c-1.873,1.7926-4.6842,2.6889-8.4319,2.6889  c-7.8237,0-11.7355-5.0881-11.7355-15.2644V14.6083z"
   id="path11915" />
<path
   class="st0"
   d="M153.209,30.5292c0-7.7674,3.4194-11.6535,10.2583-11.6535c6.3739,0,9.56,3.3792,9.56,10.136v22.158  c0,2.9818-0.8609,5.4518-2.5843,7.4069s-3.9263,2.9335-6.6072,2.9335c-3.6914,0-6.3867-0.9365-8.0828-2.8112  c-1.6961-1.8731-2.5441-4.8886-2.5441-9.0467V30.5292z M163.6315,58.3515c4.0486,0,6.0729-3.0381,6.0729-9.111V31.1053  c0-5.9362-2.2158-8.905-6.6474-8.905c-4.2948,0-6.4431,3.5562-6.4431,10.6687c0,1.9422,0,4.8564,0,8.7409l0.0418,8.7393  C156.6558,55.6835,158.981,58.3515,163.6315,58.3515z"
   id="path11917" />
<path
   class="st0"
   d="M179.9628,18.9996h3.5289v3.6109c2.6261-2.7356,5.0479-4.1033,7.2621-4.1033  c3.4194,0,5.7592,1.1087,7.0175,3.3229c0.9574,1.6703,1.437,4.3367,1.437,8.0023v15.8807c0,6.0182-0.0563,11.174-0.1641,15.4688  h-3.1185V28.7318c0-2.2995-0.288-3.9698-0.8593-5.0109c-0.7643-1.4515-2.1949-2.1772-4.2948-2.1772  c-2.89,0-5.3166,1.6816-7.2798,5.0415V61.182h-3.5289V18.9996z"
   id="path11919" />


















</svg>