<?xml version="1.0" encoding="utf-8"?>
<!-- Generator: Adobe Illustrator 19.1.0, SVG Export Plug-In . SVG Version: 6.00 Build 0)  -->
<svg version="1.1" id="Ebene_1" xmlns="http://www.w3.org/2000/svg" xmlns:xlink="http://www.w3.org/1999/xlink" x="0px" y="0px"
	 viewBox="0 0 60.875 100.875" style="enable-background:new 0 0 60.875 100.875;" xml:space="preserve">
<style type="text/css">
	.st0{fill:#FFFFFF;}
</style>
<g id="ASIEN">
	<polygon class="st0" points="0.5686,73.9644 4.9627,77.1722 9.9569,75.0491 10.5646,69.729 6.179,66.5163 1.1769,68.6449 	"/>
	<polygon class="st0" points="21.1349,70.9477 16.7476,67.7429 11.7538,69.866 11.1461,75.1861 15.5316,78.3991 20.5275,76.2681 	
		"/>
	<polygon class="st0" points="7.49,60.2357 6.8821,65.5559 11.2763,68.7632 16.2703,66.641 16.8784,61.32 12.4921,58.1077 	"/>
	<polygon class="st0" points="17.4595,66.778 21.8448,69.9905 26.8408,67.8596 27.4486,62.5397 23.0609,59.3348 18.0676,61.457 	"/>
	<polygon class="st0" points="12.6444,51.6907 8.2589,48.4777 3.2566,50.6066 2.6486,55.9267 7.0428,59.1339 12.0363,57.0117 	"/>
	<polygon class="st0" points="23.2143,52.9103 18.8272,49.7055 13.8336,51.8277 13.2255,57.1487 17.6112,60.3613 22.6068,58.2303 	
		"/>
	<polygon class="st0" points="32.2933,77.6085 36.6792,80.8214 41.682,78.6934 42.2899,73.3733 37.895,70.1659 32.9011,72.2884 	"/>
	<polygon class="st0" points="52.867,74.5935 48.4816,71.3804 43.4792,73.5094 42.8713,78.8296 47.2654,82.0367 52.2592,79.9136 	
		"/>
	<path class="st0" d="M59.6614,79.5604c0.2396-1.9784,0.4185-4.0345,0.5322-6.1169l-1.1437-0.8354l-4.9937,2.1224l-0.6077,5.3201
		l4.3855,3.2128l1.3904-0.5929C59.4061,81.509,59.5459,80.5133,59.6614,79.5604z"/>
	<polygon class="st0" points="38.0259,63.7429 33.6402,60.53 28.6448,62.6603 28.0365,67.9806 32.4243,71.1861 37.4178,69.063 	"/>
	<polygon class="st0" points="38.607,69.2 42.9927,72.4131 47.9952,70.2842 48.6032,64.9646 44.2089,61.7568 39.2151,63.8799 	"/>
	<polygon class="st0" points="49.1845,70.4203 53.5788,73.6274 58.5726,71.5053 59.1809,66.185 54.795,62.9722 49.7925,65.1008 	"/>
	<path class="st0" d="M60.3221,66.7414l-0.5603,4.901l0.4995,0.3658C60.3315,70.236,60.3518,68.4727,60.3221,66.7414z"/>
	<polygon class="st0" points="33.792,54.1136 29.4063,50.9007 24.4108,53.0313 23.803,58.3513 28.1906,61.5562 33.1842,59.4337 	"/>
	<polygon class="st0" points="34.3734,59.5708 38.759,62.7839 43.7616,60.6549 44.3694,55.3353 39.975,52.1275 34.9811,54.2506 	"/>
	<polygon class="st0" points="54.9466,56.5557 50.5611,53.3431 45.5587,55.4715 44.9509,60.7911 49.345,63.9982 54.3387,61.876 	"/>
	<path class="st0" d="M59.3964,55.3067l-3.2605,1.386l-0.608,5.3203l4.3856,3.2127l0.3641-0.1553
		C60.16,61.8258,59.8641,58.547,59.3964,55.3067z"/>
	<polygon class="st0" points="35.846,36.1124 31.4583,32.9065 26.4648,35.0297 25.857,40.3497 30.2425,43.5627 35.238,41.4323 	"/>
	<polygon class="st0" points="31.5922,26.485 27.2048,23.2804 22.2109,25.4032 21.6033,30.7234 25.9888,33.9364 30.9847,31.8055 	
		"/>
	<polygon class="st0" points="29.5133,44.5235 25.1261,41.3182 20.1323,43.4412 19.5243,48.7614 23.9097,51.9741 28.9057,49.843 	
		"/>
	<polygon class="st0" points="37.9058,18.0768 33.5182,14.8719 28.5247,16.9941 27.9166,22.3151 32.3021,25.5279 37.2978,23.3969 	
		"/>
	<polygon class="st0" points="23.6828,12.6859 28.0683,15.8987 33.0641,13.7677 33.6716,8.4475 29.2843,5.2427 24.2909,7.3649 	"/>
	<polygon class="st0" points="46.4231,37.315 42.0377,34.1021 37.0418,36.233 36.4341,41.5533 40.8218,44.7582 45.8154,42.6351 	"/>
	<path class="st0" d="M56.561,42.3851c-0.5589-1.8845-1.1693-3.7314-1.8159-5.4949l-2.1388-1.5613l-4.9939,2.1231l-0.6078,5.3202
		l4.3856,3.2131l5.0026-2.1289L56.561,42.3851z"/>
	<polygon class="st0" points="42.1692,27.6888 37.784,24.4759 32.7882,26.6067 32.1805,31.9264 36.5677,35.132 41.5612,33.0088 	"/>
	<path class="st0" d="M52.4746,31.2947c-0.5907-1.3318-1.2154-2.6558-1.8592-3.9399l-2.2631-1.6516l-4.9939,2.1226l-0.608,5.3199
		l4.3859,3.2129l5.0027-2.1279L52.4746,31.2947z"/>
	<polygon class="st0" points="30.7095,44.6446 30.1016,49.9646 34.4892,53.1695 39.4826,51.0464 40.0906,45.7263 35.705,42.5136 	
		"/>
	<polygon class="st0" points="50.6682,46.9481 46.2739,43.7401 41.2798,45.8632 40.6718,51.1834 45.0577,54.3965 50.0605,52.268 	
		"/>
	<path class="st0" d="M57.3885,45.343l-0.5288-0.3874l-5.0021,2.1287l-0.6077,5.3199l4.3941,3.2077l3.5691-1.517
		C58.7472,51.1477,58.1341,48.2066,57.3885,45.343z"/>
	<path class="st0" d="M48.0963,22.6641c-1.2717-2.2077-2.6633-4.4035-4.142-6.5359l-4.8522,2.0695l-0.6084,5.3203l4.3879,3.2054
		l4.9933-2.1232L48.0963,22.6641z"/>
	<path class="st0" d="M37.2322,7.5602l-2.3643,1.0084l-0.6076,5.3201l4.3875,3.2046l4.6078-1.9585
		C41.3888,12.5174,39.3661,9.9738,37.2322,7.5602z"/>
	<path class="st0" d="M30.36,0.5738L29.9477,4.182l4.3855,3.2128l1.9908-0.8472C34.4358,4.4752,32.4356,2.4717,30.36,0.5738z"/>
	<path class="st0" d="M57.7276,89.6257l0.1238,0.0907c0.4399-1.8683,0.8262-3.7768,1.153-5.6955l-0.6686,0.2842L57.7276,89.6257z"/>
	<polygon class="st0" points="57.1466,84.168 52.7609,80.9556 47.7653,83.0864 47.1574,88.4063 51.5449,91.6117 56.5384,89.4887 	
		"/>
	<polygon class="st0" points="25.4339,80.5026 21.0396,77.2954 16.0456,79.4175 15.4377,84.7385 19.8238,87.9508 24.8259,85.8227 	
		"/>
	<polygon class="st0" points="40.8265,96.8099 45.2117,100.0228 50.2077,97.8916 50.8157,92.5715 46.4281,89.3667 41.4346,91.4893 	
		"/>
	<path class="st0" d="M53.9575,34.826c-0.1724-0.435-0.3497-0.8728-0.5316-1.3122l-0.0975,0.8531L53.9575,34.826z"/>
	<path class="st0" d="M49.3757,24.9655c-0.0927-0.1727-0.1857-0.3446-0.2788-0.5153l-0.0328,0.287L49.3757,24.9655z"/>
</g>
</svg>
