<?xml version="1.0" encoding="utf-8"?>
<!-- Generator: Adobe Illustrator 19.1.0, SVG Export Plug-In . SVG Version: 6.00 Build 0)  -->
<svg version="1.1" id="Ebene_1" xmlns="http://www.w3.org/2000/svg" xmlns:xlink="http://www.w3.org/1999/xlink" x="0px" y="0px"
	 viewBox="0 0 91.125 87.2268" style="enable-background:new 0 0 91.125 87.2268;" xml:space="preserve">
<style type="text/css">
	.st0{fill:#FFFFFF;}
</style>
<g id="NORDAMERIKA">
	<polygon class="st0" points="12.494,74.4585 8.1065,71.2532 3.1128,73.3763 2.5046,78.697 6.8904,81.9091 11.8859,79.7785 	"/>
	<path class="st0" d="M8.2597,64.8286l-3.0128-2.2008c-1.1863,3.0279-2.2203,6.1488-3.0791,9.2942l0.4886,0.358l4.9959-2.1307
		L8.2597,64.8286z"/>
	<polygon class="st0" points="18.8248,66.0551 14.4395,62.8422 9.4436,64.9733 8.8356,70.2934 13.2231,73.4982 18.2167,71.3757 	"/>
	<path class="st0" d="M20.8911,48.0307l-4.3872-3.2049l-2.6491,1.1259c-0.985,1.505-1.9054,2.9993-2.7386,4.4459l-0.2138,1.8715
		l4.3853,3.2125l4.9959-2.1308L20.8911,48.0307z"/>
	<path class="st0" d="M14.5586,56.4419l-4.3875-3.2048l-0.7929,0.337c-1.3487,2.5741-2.586,5.2387-3.6826,7.9304l3.2596,2.388
		l4.9954-2.1302L14.5586,56.4419z"/>
	<polygon class="st0" points="31.456,49.2569 27.0707,46.0442 22.0749,48.1743 21.4675,53.4954 25.8542,56.7001 30.848,54.5772 	"/>
	<path class="st0" d="M27.2026,39.6308l-4.386-3.2131l-2.816,1.2008c-0.8122,0.98-1.6262,2.0063-2.4225,3.0544l-0.3649,3.1954
		l4.3873,3.2056l4.9944-2.1231L27.2026,39.6308z"/>
	<polygon class="st0" points="37.7799,40.8526 33.3856,37.6445 28.3918,39.7677 27.784,45.0878 32.1695,48.3006 37.1717,46.172 	"/>
	<polygon class="st0" points="61.0069,25.254 56.6196,22.0492 51.6262,24.1713 51.0181,29.4924 55.4036,32.7051 60.3994,30.5742 	
		"/>
	<path class="st0" d="M90.1492,4.2841c-3.1879,0.0211-6.4014,0.2106-9.5697,0.5641L80.5174,5.392l4.3859,3.213l4.9958-2.1303
		L90.1492,4.2841z"/>
	<polygon class="st0" points="84.1932,9.5629 79.8059,6.358 74.8121,8.4806 74.2041,13.8012 78.5897,17.0136 83.5852,14.8829 	"/>
	<polygon class="st0" points="77.8569,17.9729 73.4708,14.7602 68.468,16.8886 67.8601,22.2086 72.255,25.416 77.2488,23.2935 	"/>
	<polygon class="st0" points="67.2788,16.7524 62.8846,13.5451 57.8911,15.6674 57.283,20.9884 61.6685,24.2012 66.6708,22.0725 	
		"/>
	<path class="st0" d="M56.7019,15.5304L52.67,12.5768c-1.831,0.8381-3.6599,1.7496-5.4456,2.714l-0.5113,4.4779l4.3871,3.2049
		l4.9935-2.1222L56.7019,15.5304z"/>
	<polygon class="st0" points="25.1238,57.6683 20.738,54.4556 15.7422,56.5867 15.1346,61.906 19.5223,65.1108 24.5158,62.9886 	"/>
	<polygon class="st0" points="16.3071,43.9314 16.6485,40.9439 13.7808,45.0084 	"/>
	<path class="st0" d="M1.3154,78.56l0.6083-5.3208l-0.0883-0.0647c-0.4871,1.8887-0.9166,3.8015-1.2821,5.7094L1.3154,78.56z"/>
	<polygon class="st0" points="40.4411,28.2703 44.8352,31.4776 49.8289,29.3554 50.437,24.0343 46.0515,20.8216 41.049,22.9503 	"/>
	<polygon class="st0" points="13.4525,45.4738 13.4524,45.4739 13.4525,45.4739 	"/>
</g>
</svg>
