<?xml version="1.0" encoding="utf-8"?>
<!-- Generator: Adobe Illustrator 19.1.0, SVG Export Plug-In . SVG Version: 6.00 Build 0)  -->
<svg version="1.1" id="Ebene_1" xmlns="http://www.w3.org/2000/svg" xmlns:xlink="http://www.w3.org/1999/xlink" x="0px" y="0px"
	 viewBox="0 0 75 87.5" style="enable-background:new 0 0 75 87.5;" xml:space="preserve">
<style type="text/css">
	.st0{fill:#FFFFFF;}
</style>
<g id="AFRIKA">
	<polygon class="st0" points="19.0773,12.0249 14.6919,8.8119 9.6895,10.9409 9.0816,16.2611 13.4757,19.4682 18.4695,17.3451 	"/>
	<polygon class="st0" points="19.6587,17.4821 24.0442,20.6949 29.0398,18.5647 29.6477,13.2444 25.2602,10.0396 20.2664,12.162 	
		"/>
	<polygon class="st0" points="16.0028,2.5322 15.3948,7.8518 19.7891,11.0589 24.7829,8.9368 25.3912,3.6165 21.0053,0.4037 	"/>
	<polygon class="st0" points="40.22,14.4357 35.8324,11.2308 30.8389,13.353 30.2309,18.674 34.6163,21.8859 39.6122,19.7555 	"/>
	<polygon class="st0" points="35.9633,4.8077 31.5778,1.5945 26.575,3.7232 25.9669,9.043 30.3616,12.2509 35.3551,10.1285 	"/>
	<polygon class="st0" points="46.5337,6.027 42.1462,2.8217 37.1525,4.9448 36.5443,10.2655 40.9301,13.4777 45.9256,11.3471 	"/>
	<polygon class="st0" points="50.7851,15.6619 46.3992,12.4491 41.4034,14.5793 40.7958,19.8997 45.1829,23.1052 50.1774,20.9822 	
		"/>
	<polygon class="st0" points="61.3625,16.8837 56.9681,13.6759 51.9743,15.7989 51.3666,21.1192 55.7521,24.3318 60.7543,22.2032 	
		"/>
	<polygon class="st0" points="23.3569,21.5995 18.9713,18.3871 13.9756,20.5178 13.3677,25.8378 17.7552,29.0432 22.7487,26.9201 	
		"/>
	<polygon class="st0" points="17.602,35.4678 21.989,38.6724 26.9827,36.5494 27.5907,31.2294 23.205,28.0164 18.2093,30.147 	"/>
	<polygon class="st0" points="12.7921,20.3738 8.4047,17.1689 3.411,19.2915 2.8029,24.612 7.1885,27.8244 12.1841,25.6938 	"/>
	<polygon class="st0" points="7.0369,34.2414 11.422,37.4542 16.418,35.3231 17.026,30.003 12.6384,26.7981 7.6449,28.9207 	"/>
	<polygon class="st0" points="44.6547,69.7851 40.2675,66.5802 35.2738,68.7026 34.666,74.0235 39.0513,77.236 44.0472,75.1052 	"/>
	<polygon class="st0" points="46.7146,51.7501 42.3271,48.5448 37.3335,50.6679 36.7254,55.9885 41.1111,59.2009 46.1066,57.0702 	
		"/>
	<polygon class="st0" points="42.4803,42.1203 38.0934,38.9155 33.0997,41.0387 32.4916,46.3587 36.8772,49.5716 41.8731,47.4411 	
		"/>
	<polygon class="st0" points="55.2195,71.0113 50.8342,67.7986 45.8385,69.9287 45.231,75.2497 49.6178,78.4545 54.6115,76.3316 	
		"/>
	<polygon class="st0" points="50.9662,61.3851 46.5802,58.1721 41.5843,60.3024 40.9767,65.6227 45.364,68.8283 50.3584,66.7052 	
		"/>
	<polygon class="st0" points="61.5435,62.6069 57.1491,59.3989 52.1554,61.5221 51.5476,66.8422 55.933,70.055 60.9352,67.9264 	"/>
	<polygon class="st0" points="48.8873,79.4227 44.5015,76.21 39.5058,78.341 38.8981,83.6604 43.2858,86.8652 48.2794,84.743 	"/>
	<polygon class="st0" points="47.2903,57.2142 51.6777,60.4191 56.6714,58.2966 57.2795,52.9759 52.8937,49.7635 47.8982,51.8943 	
		"/>
	<polygon class="st0" points="67.8568,54.1978 63.4626,50.9905 58.4686,53.1129 57.8606,58.4336 62.2461,61.6468 67.2489,59.5178 	
		"/>
	<polygon class="st0" points="63.6232,44.5685 59.2284,41.3611 54.2348,43.4836 53.6266,48.8043 58.0126,52.0168 63.0154,49.8885 	
		"/>
	<polygon class="st0" points="64.2047,50.0247 68.5988,53.2319 73.5925,51.1097 74.2006,45.7887 69.815,42.576 64.8126,44.7047 	"/>
	<polygon class="st0" points="65.6545,26.4528 61.2666,23.2473 56.2733,25.3705 55.6651,30.6905 60.0507,33.9034 65.0462,31.773 	
		"/>
	<polygon class="st0" points="55.0841,25.2335 50.6983,22.0203 45.6958,24.1492 45.0877,29.4688 49.4821,32.6766 54.4759,30.5535 	
		"/>
	<polygon class="st0" points="44.5065,24.0131 40.1122,20.8059 35.1185,22.9281 34.5101,28.2484 38.8959,31.4612 43.8984,29.3326 	
		"/>
	<polygon class="st0" points="33.9294,22.791 29.5434,19.5784 24.5481,21.7087 23.9399,27.0287 28.3276,30.2342 33.3209,28.1114 	
		"/>
	<polygon class="st0" points="69.8879,36.082 65.5003,32.8773 60.5068,34.9997 59.8991,40.3198 64.2848,43.5327 69.2803,41.4021 	
		"/>
	<polygon class="st0" points="49.3215,39.0981 53.7161,42.306 58.7099,40.1828 59.3176,34.8627 54.9321,31.6496 49.9295,33.7785 	
		"/>
	<polygon class="st0" points="48.7401,33.6423 44.3461,30.4351 39.3523,32.5573 38.7442,37.8776 43.1299,41.0905 48.1322,38.9619 	
		"/>
	<polygon class="st0" points="28.1739,36.6579 32.5612,39.8634 37.555,37.7406 38.1631,32.4203 33.7775,29.2077 28.7816,31.3385 	
		"/>
	<polygon class="st0" points="43.0564,47.585 47.4438,50.7898 52.4374,48.6673 53.0455,43.3466 48.6603,40.1338 43.6642,42.265 	"/>
</g>
</svg>
