<?xml version="1.0" encoding="utf-8"?>
<!-- Generator: Adobe Illustrator 19.1.0, SVG Export Plug-In . SVG Version: 6.00 Build 0)  -->
<svg version="1.1" id="Ebene_1" xmlns="http://www.w3.org/2000/svg" xmlns:xlink="http://www.w3.org/1999/xlink" x="0px" y="0px"
	 viewBox="-30 31 30.7 30.7" style="enable-background:new -30 31 30.7 30.7;" xml:space="preserve">
<style type="text/css">
	.st0{fill:#E9B400;}
	.st1{fill:#FFFFFF;}
</style>
<path class="st0" d="M-14.7,31.4c-8.3,0-15,6.7-15,15s6.7,15,15,15s15-6.7,15-15S-6.4,31.4-14.7,31.4z M-14.7,60.3
	c-7.7,0-14-6.3-14-14s6.3-14,14-14s14,6.3,14,14S-7,60.3-14.7,60.3z"/>
<polygon class="st1" points="-10.2,50.4 -14.2,46.3 -10.2,42.3 -10.7,41.8 -14.7,45.8 -18.7,41.8 -19.2,42.3 -15.2,46.3 -19.2,50.4 
	-18.7,50.9 -14.7,46.9 -10.7,50.9 "/>
</svg>
