<?xml version="1.0" encoding="utf-8"?>
<!-- Generator: Adobe Illustrator 19.1.0, SVG Export Plug-In . SVG Version: 6.00 Build 0)  -->
<svg version="1.1" id="Ebene_1" xmlns="http://www.w3.org/2000/svg" xmlns:xlink="http://www.w3.org/1999/xlink" x="0px" y="0px"
	 viewBox="0 2.83 60 60" style="enable-background:new 0 2.83 60 60;" xml:space="preserve">
<style type="text/css">
	.st0{fill:#E9B400;}
	.st1{fill:#1E1E1E;}
</style>
<circle class="st0" cx="30" cy="32.83" r="30"/>
<rect x="17.13" y="15.54" class="st1" width="28.5" height="32.75"/>
<g>
	
		<rect x="33.99" y="17.99" transform="matrix(-0.937 -0.3493 0.3493 -0.937 63.6794 49.3432)" class="st0" width="4.6" height="1.87"/>
	<path class="st0" d="M10.16,12.99v39.69h39.69V12.99H10.16z M44.72,31.6l-0.82-2.04L42,30.27c1.08,2.76,1.2,5.91,0.08,8.91
		c-2.4,6.44-9.6,9.73-16.04,7.33s-9.73-9.6-7.33-16.05c2.36-6.33,9.34-9.61,15.69-7.45l0.91-2.45l-2.71-1.01l0.32-0.88l0,0
		l0.65-1.75l0,0l0.32-0.88l6.07,2.26l-0.32,0.89h-0.01L39,20.94H39l-0.32,0.88l-2.67-0.99l-0.91,2.45c3.1,1.26,5.42,3.64,6.69,6.49
		l1.9-0.71l-0.79-1.98l0.71-0.28l1.81,4.53L44.72,31.6z"/>
	<path class="st0" d="M30.39,47.06c-1.44,0-2.88-0.26-4.27-0.77c-3.06-1.14-5.49-3.41-6.85-6.38c-1.36-2.98-1.48-6.3-0.34-9.35
		c1.14-3.06,3.41-5.49,6.38-6.85c2.98-1.36,6.3-1.48,9.35-0.34l0,0c3.06,1.14,5.49,3.41,6.85,6.38c1.36,2.98,1.48,6.3,0.34,9.35
		c-1.14,3.06-3.41,5.49-6.38,6.85C33.86,46.68,32.12,47.06,30.39,47.06z M30.4,23.24c-1.64,0-3.27,0.35-4.81,1.06
		c-2.82,1.28-4.96,3.58-6.04,6.48c-1.08,2.89-0.97,6.03,0.32,8.85c1.28,2.82,3.58,4.96,6.48,6.04c2.89,1.08,6.03,0.97,8.85-0.32
		c2.82-1.28,4.96-3.58,6.04-6.48s0.97-6.03-0.32-8.85c-1.28-2.82-3.58-4.96-6.48-6.04l0,0C33.13,23.48,31.77,23.24,30.4,23.24z
		 M29.62,38.85l-1.22-0.46l0.56-1.51c-0.94-0.66-1.34-1.9-0.93-3c0.41-1.1,1.52-1.77,2.67-1.66l0.47-1.26l-0.11-0.02
		c-1.49-0.24-2.99,0.44-3.82,1.7l-0.18,0.28L24.4,31.2l0,0l-2.36-1.52l0.18-0.28c2.3-3.58,6.77-5.3,10.87-4.18l0.21,0.05l0.01-0.01
		l0.15,0.05l0,0l1.08,0.4l-2.59,6.96c0.94,0.66,1.34,1.9,0.93,3l0,0c-0.41,1.1-1.52,1.77-2.67,1.66L29.62,38.85z M29.76,36.59
		l0.27,0.06c0.92,0.2,1.87-0.32,2.19-1.2l0,0c0.33-0.88-0.05-1.89-0.87-2.34l-0.24-0.13l-0.27-0.06c-0.92-0.2-1.87,0.32-2.2,1.2
		C28.3,35,28.68,36,29.5,36.45L29.76,36.59z"/>
</g>
</svg>
