<?xml version="1.0" encoding="utf-8"?>
<!-- Generator: Adobe Illustrator 19.1.0, SVG Export Plug-In . SVG Version: 6.00 Build 0)  -->
<svg version="1.1" id="Ebene_1" xmlns="http://www.w3.org/2000/svg" xmlns:xlink="http://www.w3.org/1999/xlink" x="0px" y="0px"
	 viewBox="0 2.83 60 60" style="enable-background:new 0 2.83 60 60;" xml:space="preserve">
<style type="text/css">
	.st0{fill:#1E1E1E;}
	.st1{fill:#E9B400;}
</style>
<rect x="13.17" y="33.49" class="st0" width="33.5" height="16.33"/>
<path class="st1" d="M30,2.83c-16.57,0-30,13.43-30,30s13.43,30,30,30s30-13.43,30-30S46.57,2.83,30,2.83z M21.34,45.67
	c-0.69,0.01-1.39,0.01-2.08,0c-0.37-0.01-0.58,0.1-0.63,0.5c-0.09,0.63-0.23,1.25-0.33,1.88c-0.06,0.39-0.24,0.58-0.65,0.57
	c-0.49-0.02-0.98-0.01-1.48,0c-0.43,0.01-0.57-0.12-0.48-0.59c0.52-2.57,1.01-5.14,1.5-7.72c0.14-0.75,0.28-1.5,0.4-2.26
	c0.06-0.39,0.25-0.57,0.66-0.56c0.77,0.02,1.53,0,2.3,0c0-0.01,0-0.03,0-0.04c0.96,0.05,1.93,0.03,2.89,0.15
	c1.78,0.22,2.77,1.42,2.74,3.23C26.13,43.53,24.03,45.64,21.34,45.67z M33.6,45.65c-0.76,0.04-1.52,0.02-2.34,0.02
	c0.21-1.17,0.4-2.24,0.6-3.31c0.11-0.61,0.24-1.22,0.34-1.83c0.11-0.61-0.15-0.95-0.77-0.99c-0.51-0.03-1.02,0.01-1.53-0.04
	c-0.57-0.06-0.76,0.2-0.85,0.72c-0.27,1.56-0.57,3.12-0.88,4.67c-0.15,0.79-0.16,0.79-0.99,0.79c-0.4,0-0.8-0.02-1.2,0
	c-0.42,0.02-0.55-0.15-0.47-0.56c0.25-1.19,0.49-2.39,0.72-3.59c0.4-2.05,0.81-4.11,1.19-6.17c0.1-0.54,0.3-0.81,0.88-0.74
	c0.41,0.05,0.84,0.03,1.26,0.01c0.44-0.02,0.6,0.14,0.5,0.59c-0.12,0.53-0.21,1.07-0.31,1.61c-0.04,0.19-0.05,0.39-0.09,0.67
	c0.53,0,1-0.02,1.46,0c0.69,0.04,1.39,0.04,2.06,0.17c1.3,0.25,1.94,1.17,1.73,2.47c-0.29,1.7-0.63,3.4-0.98,5.09
	C33.91,45.4,33.73,45.64,33.6,45.65z M44.63,41.13c-0.34,2.86-2.23,4.54-5.11,4.55c-0.22,0-0.44,0-0.66,0c-0.11,0-0.22,0-0.33,0
	c-1.54,0.04-1.27-0.29-1.59,1.38c-0.36,1.84-0.03,1.53-1.83,1.56c-1.05,0.01-1.06,0-0.87-1c0.6-3.16,1.23-6.32,1.82-9.49
	c0.09-0.47,0.28-0.65,0.76-0.64c1.38,0.02,2.77-0.01,4.15,0.01c1.11,0.02,2.18,0.22,2.97,1.12C44.58,39.35,44.74,40.21,44.63,41.13z
	"/>
<path class="st1" d="M40.87,39.56c-0.68-0.09-1.38-0.11-2.07-0.1c-0.16,0-0.41,0.24-0.45,0.4c-0.19,0.83-0.32,1.68-0.47,2.52
	c-0.08,0.42-0.16,0.84-0.25,1.35c0.66,0,1.24,0.02,1.82,0c1.19-0.05,1.93-0.62,2.28-1.76c0.09-0.28,0.13-0.57,0.18-0.85
	C42.07,40.28,41.69,39.67,40.87,39.56z"/>
<path class="st1" d="M22.36,39.55c-0.61-0.09-1.23-0.07-1.85-0.12c-0.42-0.03-0.62,0.11-0.68,0.56c-0.11,0.85-0.29,1.69-0.45,2.53
	c-0.25,1.29-0.39,1.22,0.97,1.21c0.16,0,0.33,0.01,0.49,0c1.39-0.05,2.15-0.66,2.48-2.02c0.05-0.21,0.1-0.43,0.13-0.64
	C23.59,40.25,23.2,39.67,22.36,39.55z"/>
</svg>
