<?xml version="1.0" encoding="utf-8"?>
<!-- Generator: Adobe Illustrator 19.1.0, SVG Export Plug-In . SVG Version: 6.00 Build 0)  -->
<svg version="1.1" id="Ebene_1" xmlns="http://www.w3.org/2000/svg" xmlns:xlink="http://www.w3.org/1999/xlink" x="0px" y="0px"
	 viewBox="0 2.83 60 60" style="enable-background:new 0 2.83 60 60;" xml:space="preserve">
<style type="text/css">
	.st0{fill:#E9B400;}
	.st1{fill:#1E1E1E;}
</style>
<circle class="st0" cx="30" cy="32.83" r="30"/>
<rect x="12.67" y="15.99" class="st1" width="35" height="33.5"/>
<g>
	<path class="st0" d="M15.24,17.25c-0.04-0.05-0.09-0.08-0.13-0.11c-0.05-0.03-0.11-0.04-0.16-0.04h-0.73v1h0.75
		c0.05,0,0.11-0.01,0.15-0.04c0.05-0.02,0.09-0.06,0.13-0.1c0.03-0.04,0.06-0.1,0.09-0.16c0.02-0.06,0.03-0.13,0.03-0.2
		c0-0.07-0.01-0.14-0.03-0.2C15.31,17.35,15.28,17.3,15.24,17.25z"/>
	<path class="st0" d="M17.51,17.78c-0.08,0-0.15,0.01-0.22,0.04c-0.07,0.03-0.13,0.07-0.18,0.11c-0.05,0.05-0.09,0.11-0.13,0.18
		c-0.03,0.07-0.05,0.15-0.06,0.23h1.18c-0.01-0.17-0.08-0.31-0.19-0.41C17.8,17.83,17.67,17.78,17.51,17.78z"/>
	<path class="st0" d="M22.77,18.05c-0.06-0.06-0.13-0.11-0.2-0.15c-0.08-0.03-0.16-0.05-0.25-0.05c-0.05,0-0.11,0.01-0.17,0.03
		s-0.11,0.05-0.16,0.08c-0.05,0.03-0.09,0.07-0.13,0.12c-0.04,0.05-0.07,0.1-0.09,0.15v0.54c0.05,0.13,0.13,0.24,0.24,0.32
		c0.11,0.09,0.22,0.13,0.35,0.13c0.09,0,0.17-0.02,0.24-0.06c0.07-0.04,0.14-0.09,0.19-0.15c0.05-0.07,0.09-0.14,0.12-0.22
		c0.03-0.09,0.05-0.17,0.05-0.26c0-0.09-0.01-0.19-0.05-0.26C22.87,18.18,22.82,18.11,22.77,18.05z"/>
	<path class="st0" d="M25.36,18.04c-0.05-0.06-0.12-0.11-0.19-0.14c-0.07-0.03-0.15-0.05-0.24-0.05s-0.15,0.02-0.22,0.05
		c-0.07,0.03-0.14,0.08-0.19,0.15c-0.05,0.06-0.09,0.13-0.13,0.22c-0.03,0.09-0.05,0.18-0.05,0.27c0,0.1,0.01,0.19,0.05,0.28
		c0.03,0.08,0.07,0.15,0.13,0.22c0.05,0.05,0.12,0.11,0.19,0.14c0.07,0.03,0.15,0.05,0.23,0.05s0.17-0.01,0.24-0.05
		c0.07-0.03,0.13-0.08,0.19-0.14c0.05-0.06,0.1-0.13,0.13-0.22c0.03-0.09,0.05-0.18,0.05-0.28s-0.01-0.19-0.05-0.27
		C25.46,18.17,25.42,18.1,25.36,18.04z"/>
	<path class="st0" d="M35.64,17.78c-0.08,0-0.15,0.01-0.22,0.04c-0.07,0.03-0.13,0.07-0.18,0.11c-0.05,0.05-0.09,0.11-0.13,0.18
		c-0.03,0.07-0.05,0.15-0.06,0.23h1.18c-0.01-0.17-0.08-0.31-0.19-0.41S35.8,17.78,35.64,17.78z"/>
	<path class="st0" d="M16.54,21.8c-0.13-0.15-0.3-0.27-0.49-0.35c-0.19-0.09-0.41-0.13-0.65-0.13h-0.88v3.43h0.88
		c0.25,0,0.47-0.05,0.66-0.13c0.19-0.09,0.36-0.21,0.48-0.36s0.23-0.34,0.3-0.55c0.07-0.21,0.11-0.44,0.11-0.68
		c0-0.25-0.03-0.48-0.11-0.69C16.78,22.13,16.68,21.96,16.54,21.8z"/>
	<path class="st0" d="M20.46,22.45c-0.13,0-0.26,0.03-0.37,0.07s-0.22,0.11-0.3,0.19c-0.09,0.09-0.16,0.19-0.22,0.3
		c-0.05,0.12-0.09,0.24-0.1,0.39h2c-0.03-0.29-0.13-0.52-0.32-0.69C20.95,22.54,20.72,22.45,20.46,22.45z"/>
	<path class="st0" d="M31.03,22.78c-0.19-0.14-0.38-0.21-0.59-0.21c-0.15,0-0.29,0.03-0.42,0.1s-0.23,0.15-0.32,0.26
		c-0.09,0.11-0.16,0.24-0.21,0.38c-0.05,0.14-0.07,0.29-0.07,0.44c0,0.16,0.03,0.3,0.08,0.44c0.05,0.14,0.13,0.26,0.22,0.36
		c0.09,0.11,0.21,0.19,0.34,0.24c0.13,0.06,0.27,0.09,0.42,0.09c0.11,0,0.21-0.02,0.31-0.05c0.1-0.03,0.19-0.08,0.27-0.14
		s0.15-0.13,0.22-0.21c0.07-0.08,0.11-0.16,0.15-0.25v-0.92C31.35,23.1,31.21,22.92,31.03,22.78z"/>
	<circle class="st0" cx="43.1" cy="41.97" r="0.37"/>
	<circle class="st0" cx="44" cy="26.91" r="0.5"/>
	<path class="st0" d="M45.17,17.94c0.01,0,0.03-0.01,0.03-0.03c0-0.01-0.01-0.03-0.03-0.03h-2.3c-0.01,0-0.03,0.01-0.03,0.03
		c0,0.01,0.01,0.03,0.03,0.03H45.17z"/>
	<path class="st0" d="M10.16,12.99v39.69h39.69V12.99H10.16z M41.51,18.34c0-0.34,0.28-0.62,0.62-0.62h3.83
		c0.34,0,0.62,0.28,0.62,0.62l-0.01,8.68c0,0.34-0.28,0.62-0.62,0.62h-3.83c-0.34,0-0.62-0.28-0.62-0.62L41.51,18.34z M34.53,18.09
		c0.05-0.15,0.13-0.27,0.24-0.38c0.11-0.11,0.23-0.19,0.38-0.26c0.15-0.07,0.32-0.09,0.5-0.09s0.35,0.03,0.5,0.09
		c0.15,0.07,0.27,0.15,0.38,0.26c0.11,0.11,0.18,0.23,0.24,0.37c0.05,0.14,0.08,0.29,0.08,0.44c0,0.04,0,0.07,0,0.11
		s-0.01,0.07-0.01,0.09h-1.76c0.01,0.09,0.03,0.17,0.07,0.24c0.03,0.07,0.08,0.13,0.13,0.18c0.05,0.05,0.12,0.09,0.19,0.11
		c0.07,0.03,0.14,0.04,0.22,0.04c0.11,0,0.22-0.03,0.33-0.09c0.11-0.06,0.17-0.13,0.21-0.22l0.5,0.14c-0.09,0.17-0.22,0.32-0.4,0.43
		c-0.19,0.11-0.4,0.17-0.66,0.17c-0.19,0-0.35-0.03-0.5-0.09c-0.15-0.06-0.27-0.15-0.38-0.25c-0.11-0.11-0.19-0.23-0.24-0.38
		c-0.06-0.14-0.09-0.29-0.09-0.45C34.44,18.38,34.47,18.23,34.53,18.09z M32.63,17.39l0.58,1.81l0.58-1.81h0.55l-0.84,2.28h-0.63
		l-0.84-2.28C32.03,17.39,32.63,17.39,32.63,17.39z M31.21,16.5h0.58v0.58h-0.58V16.5z M31.21,17.39h0.58v2.28h-0.58V17.39z
		 M31.56,22.48V21.8h0.86v3.66c0,0.28-0.05,0.54-0.16,0.76s-0.25,0.42-0.44,0.58s-0.42,0.28-0.67,0.36
		c-0.26,0.09-0.54,0.13-0.85,0.13c-0.42,0-0.78-0.07-1.06-0.21c-0.28-0.15-0.53-0.34-0.74-0.59l0.54-0.52
		c0.15,0.18,0.33,0.32,0.56,0.42c0.22,0.11,0.46,0.15,0.71,0.15c0.15,0,0.3-0.02,0.44-0.06c0.14-0.04,0.26-0.11,0.36-0.19
		c0.11-0.09,0.19-0.2,0.25-0.34c0.06-0.14,0.09-0.3,0.09-0.48v-0.48c-0.13,0.22-0.3,0.39-0.54,0.51c-0.23,0.12-0.48,0.18-0.74,0.18
		c-0.25,0-0.49-0.05-0.7-0.15s-0.4-0.24-0.55-0.42c-0.15-0.18-0.27-0.38-0.35-0.62c-0.09-0.23-0.13-0.48-0.13-0.75
		c0-0.28,0.05-0.54,0.13-0.78s0.21-0.45,0.36-0.63c0.15-0.18,0.34-0.32,0.56-0.42c0.22-0.1,0.46-0.15,0.72-0.15
		c0.3,0,0.57,0.07,0.79,0.21S31.42,22.25,31.56,22.48z M30.2,18.87c-0.09-0.04-0.22-0.08-0.42-0.13c-0.15-0.03-0.27-0.07-0.38-0.11
		c-0.11-0.04-0.19-0.08-0.25-0.13c-0.07-0.05-0.11-0.11-0.14-0.17c-0.03-0.07-0.05-0.14-0.05-0.22c0-0.12,0.03-0.22,0.07-0.31
		c0.05-0.09,0.11-0.18,0.2-0.24c0.08-0.07,0.18-0.11,0.29-0.15c0.11-0.03,0.23-0.05,0.36-0.05c0.17,0,0.32,0.03,0.48,0.08
		c0.16,0.05,0.31,0.12,0.45,0.21l-0.24,0.36c-0.13-0.08-0.24-0.14-0.36-0.18c-0.11-0.04-0.23-0.05-0.34-0.05
		c-0.11,0-0.19,0.02-0.26,0.06s-0.11,0.11-0.11,0.2c0,0.08,0.03,0.13,0.1,0.17c0.07,0.03,0.19,0.07,0.36,0.12
		c0.17,0.04,0.3,0.08,0.42,0.12c0.11,0.04,0.21,0.09,0.28,0.14s0.13,0.11,0.16,0.18c0.03,0.07,0.05,0.15,0.05,0.24
		c0,0.11-0.02,0.21-0.07,0.3c-0.05,0.09-0.11,0.17-0.19,0.23c-0.08,0.06-0.18,0.11-0.3,0.15c-0.12,0.03-0.24,0.05-0.39,0.05
		c-0.09,0-0.19-0.01-0.29-0.02c-0.1-0.01-0.2-0.03-0.29-0.06s-0.19-0.06-0.27-0.09c-0.09-0.04-0.17-0.08-0.23-0.13l0.24-0.4
		c0.29,0.19,0.57,0.28,0.84,0.28c0.12,0,0.22-0.02,0.28-0.07c0.07-0.05,0.11-0.11,0.11-0.19S30.28,18.91,30.2,18.87z M26.47,17.39
		H27v0.42c0.09-0.15,0.21-0.26,0.36-0.34c0.16-0.08,0.34-0.12,0.54-0.12c0.14,0,0.26,0.03,0.35,0.08c0.09,0.05,0.16,0.12,0.21,0.21
		c0.05,0.09,0.09,0.18,0.1,0.28c0.02,0.11,0.03,0.22,0.03,0.32v1.42H28v-1.28c0-0.19-0.03-0.32-0.09-0.4
		c-0.07-0.09-0.15-0.13-0.26-0.13c-0.06,0-0.12,0.01-0.18,0.03c-0.06,0.02-0.12,0.05-0.17,0.1c-0.05,0.04-0.1,0.09-0.15,0.15
		c-0.05,0.06-0.07,0.12-0.09,0.19v1.33h-0.58C26.47,19.67,26.47,17.39,26.47,17.39z M26.8,21.27v-0.98h0.99v0.98H26.8z M27.78,21.8
		v3.84H26.8V21.8H27.78z M25.02,24.28c-0.14-0.07-0.37-0.14-0.7-0.22c-0.25-0.06-0.46-0.12-0.63-0.19
		c-0.18-0.07-0.32-0.14-0.42-0.22c-0.11-0.09-0.19-0.18-0.23-0.28c-0.05-0.11-0.07-0.23-0.07-0.38c0-0.2,0.04-0.37,0.12-0.53
		c0.08-0.16,0.19-0.29,0.32-0.4c0.14-0.11,0.3-0.19,0.49-0.25c0.19-0.06,0.39-0.09,0.62-0.09c0.27,0,0.55,0.04,0.82,0.13
		c0.27,0.09,0.52,0.21,0.76,0.35l-0.4,0.61c-0.22-0.14-0.42-0.24-0.61-0.3c-0.19-0.06-0.38-0.09-0.58-0.09
		c-0.18,0-0.32,0.03-0.44,0.11c-0.12,0.07-0.18,0.18-0.18,0.33c0,0.13,0.06,0.22,0.17,0.28c0.11,0.06,0.32,0.13,0.62,0.2
		c0.27,0.07,0.51,0.14,0.7,0.21c0.19,0.07,0.35,0.15,0.48,0.23c0.13,0.09,0.22,0.19,0.27,0.3s0.09,0.25,0.09,0.42
		c0,0.19-0.04,0.36-0.11,0.51c-0.08,0.15-0.19,0.28-0.32,0.38c-0.14,0.11-0.3,0.19-0.5,0.24c-0.2,0.06-0.42,0.09-0.65,0.09
		c-0.16,0-0.32-0.01-0.49-0.04c-0.17-0.03-0.33-0.06-0.5-0.11c-0.16-0.05-0.32-0.1-0.46-0.16c-0.15-0.06-0.28-0.13-0.39-0.21
		l0.4-0.67c0.49,0.32,0.96,0.48,1.42,0.48c0.21,0,0.36-0.04,0.48-0.11c0.12-0.07,0.18-0.18,0.18-0.32S25.16,24.36,25.02,24.28z
		 M23.83,18.09c0.05-0.14,0.13-0.26,0.24-0.38c0.11-0.11,0.22-0.19,0.38-0.26c0.15-0.07,0.32-0.09,0.5-0.09
		c0.19,0,0.35,0.03,0.5,0.09c0.15,0.07,0.27,0.15,0.38,0.26c0.11,0.11,0.18,0.23,0.24,0.38c0.05,0.14,0.09,0.29,0.09,0.45
		s-0.03,0.3-0.09,0.45c-0.05,0.14-0.13,0.26-0.23,0.38c-0.1,0.11-0.22,0.19-0.38,0.26c-0.15,0.07-0.32,0.1-0.5,0.1
		c-0.19,0-0.35-0.03-0.5-0.1c-0.15-0.07-0.27-0.15-0.38-0.26c-0.11-0.11-0.18-0.23-0.24-0.38c-0.05-0.14-0.09-0.29-0.09-0.45
		C23.75,18.38,23.78,18.23,23.83,18.09z M21.18,17.39h0.51v0.39c0.09-0.13,0.19-0.24,0.32-0.32c0.13-0.08,0.28-0.11,0.46-0.11
		c0.15,0,0.3,0.03,0.42,0.09c0.13,0.06,0.24,0.15,0.34,0.25c0.09,0.11,0.17,0.23,0.22,0.37c0.05,0.14,0.08,0.3,0.08,0.46
		c0,0.17-0.03,0.32-0.07,0.46c-0.05,0.15-0.12,0.27-0.21,0.38c-0.09,0.11-0.19,0.19-0.32,0.25c-0.13,0.06-0.26,0.09-0.4,0.09
		c-0.18,0-0.33-0.04-0.46-0.12s-0.24-0.19-0.31-0.32v1.32h-0.58C21.18,20.59,21.18,17.39,21.18,17.39z M19.59,24.44
		c0.06,0.12,0.13,0.22,0.22,0.3c0.09,0.09,0.2,0.15,0.32,0.19C20.25,24.98,20.37,25,20.5,25c0.2,0,0.38-0.05,0.56-0.15
		c0.17-0.1,0.29-0.22,0.36-0.38l0.85,0.23c-0.14,0.29-0.37,0.54-0.68,0.72c-0.31,0.19-0.68,0.28-1.11,0.28
		c-0.31,0-0.59-0.05-0.83-0.16c-0.25-0.11-0.46-0.25-0.63-0.43c-0.18-0.18-0.31-0.39-0.41-0.63c-0.09-0.24-0.15-0.49-0.15-0.75
		c0-0.27,0.05-0.53,0.14-0.77c0.09-0.24,0.22-0.46,0.4-0.64c0.18-0.19,0.39-0.33,0.64-0.44c0.25-0.11,0.54-0.16,0.85-0.16
		c0.31,0,0.6,0.05,0.84,0.16c0.24,0.11,0.46,0.25,0.63,0.43c0.17,0.18,0.3,0.39,0.4,0.63c0.09,0.24,0.14,0.49,0.14,0.75
		c0,0.07,0,0.13,0,0.19c0,0.06-0.01,0.11-0.02,0.15h-2.97C19.49,24.19,19.53,24.33,19.59,24.44z M20.17,18.87
		c-0.09-0.04-0.22-0.08-0.42-0.13c-0.15-0.03-0.27-0.07-0.38-0.11c-0.11-0.04-0.19-0.08-0.25-0.13c-0.07-0.05-0.11-0.11-0.14-0.17
		c-0.03-0.07-0.05-0.14-0.05-0.22c0-0.12,0.03-0.22,0.07-0.31c0.05-0.09,0.11-0.18,0.19-0.24s0.18-0.11,0.29-0.15
		c0.11-0.03,0.23-0.05,0.36-0.05c0.17,0,0.32,0.03,0.48,0.08c0.16,0.05,0.31,0.12,0.45,0.21l-0.24,0.36
		c-0.13-0.08-0.24-0.14-0.36-0.18c-0.11-0.04-0.22-0.05-0.34-0.05c-0.11,0-0.19,0.02-0.26,0.06s-0.11,0.11-0.11,0.2
		c0,0.08,0.03,0.13,0.1,0.17c0.07,0.03,0.19,0.07,0.36,0.12c0.17,0.04,0.3,0.08,0.42,0.12c0.11,0.04,0.21,0.09,0.28,0.14
		s0.13,0.11,0.16,0.18s0.05,0.15,0.05,0.24c0,0.11-0.02,0.21-0.07,0.3c-0.05,0.09-0.11,0.17-0.19,0.23
		c-0.08,0.06-0.18,0.11-0.3,0.15s-0.24,0.05-0.39,0.05c-0.09,0-0.19-0.01-0.29-0.02c-0.1-0.01-0.2-0.03-0.29-0.06
		s-0.19-0.06-0.27-0.09c-0.09-0.04-0.17-0.08-0.23-0.13l0.24-0.4c0.29,0.19,0.57,0.28,0.84,0.28c0.12,0,0.22-0.02,0.28-0.07
		c0.07-0.05,0.11-0.11,0.11-0.19C20.3,18.98,20.26,18.91,20.17,18.87z M16.39,18.09c0.05-0.15,0.13-0.27,0.24-0.38
		c0.11-0.11,0.23-0.19,0.38-0.26c0.15-0.07,0.32-0.09,0.5-0.09c0.19,0,0.35,0.03,0.5,0.09c0.15,0.07,0.27,0.15,0.38,0.26
		c0.11,0.11,0.18,0.23,0.24,0.37c0.05,0.14,0.08,0.29,0.08,0.44c0,0.04,0,0.07,0,0.11s-0.01,0.07-0.01,0.09h-1.76
		c0.01,0.09,0.03,0.17,0.07,0.24c0.03,0.07,0.08,0.13,0.13,0.18c0.05,0.05,0.12,0.09,0.19,0.11c0.07,0.03,0.14,0.04,0.22,0.04
		c0.11,0,0.22-0.03,0.33-0.09c0.11-0.06,0.17-0.13,0.21-0.22l0.5,0.14c-0.09,0.17-0.22,0.32-0.4,0.43c-0.19,0.11-0.4,0.17-0.66,0.17
		c-0.19,0-0.35-0.03-0.5-0.09s-0.28-0.14-0.38-0.24c-0.11-0.11-0.19-0.24-0.24-0.38c-0.06-0.14-0.09-0.29-0.09-0.45
		C16.32,18.38,16.34,18.23,16.39,18.09z M13.63,16.59h1.36c0.14,0,0.27,0.03,0.39,0.09c0.12,0.06,0.22,0.14,0.31,0.23
		c0.09,0.1,0.15,0.21,0.21,0.33c0.05,0.13,0.08,0.25,0.08,0.38c0,0.2-0.05,0.38-0.15,0.54c-0.1,0.16-0.24,0.28-0.41,0.36l0.73,1.16
		h-0.67l-0.65-1.03h-0.6v1.03h-0.6V16.59z M13.5,20.44h1.89c0.42,0,0.8,0.07,1.12,0.21c0.32,0.14,0.59,0.32,0.8,0.56
		s0.38,0.51,0.48,0.83c0.11,0.32,0.16,0.65,0.16,1.01c0,0.4-0.06,0.75-0.18,1.07s-0.29,0.6-0.52,0.82s-0.5,0.4-0.81,0.53
		c-0.32,0.13-0.67,0.19-1.06,0.19H13.5V20.44z M29.68,49.26h-9.55v-1.01h9.55C29.68,48.25,29.68,49.26,29.68,49.26z M23.92,48.16
		v-4.23h1.84v4.23H23.92z M36.38,43.78H13.3V29.52h23.08V43.78z M36.87,25.65h-0.99v-2.16c0-0.31-0.05-0.54-0.16-0.67
		c-0.11-0.14-0.26-0.21-0.45-0.21c-0.1,0-0.2,0.02-0.3,0.06c-0.11,0.04-0.2,0.09-0.29,0.17c-0.09,0.07-0.17,0.15-0.24,0.25
		c-0.07,0.1-0.13,0.21-0.16,0.32v2.24h-0.99V21.8h0.89v0.71c0.14-0.24,0.34-0.44,0.62-0.58c0.27-0.14,0.58-0.21,0.91-0.21
		c0.24,0,0.44,0.05,0.59,0.13c0.15,0.09,0.27,0.21,0.35,0.34c0.09,0.14,0.14,0.3,0.17,0.48s0.05,0.36,0.05,0.55L36.87,25.65
		L36.87,25.65z M47.52,42.15c0,0.26-0.21,0.46-0.46,0.46l-7.86-0.01c-0.26,0-0.46-0.21-0.46-0.46l0.01-11.5
		c0-0.26,0.21-0.46,0.46-0.46l7.86,0.01c0.26,0,0.46,0.21,0.46,0.46L47.52,42.15z"/>
</g>
</svg>
